<svg width="962" height="487" fill="none" xmlns="http://www.w3.org/2000/svg"><path d="M388.694 395.749c-15.853-19.843-24.855-49.529-26.999-89.04-2.132-39.287 3.605-69.656 17.221-91.102 13.616-21.447 34.373-32.929 62.283-34.446 27.907-1.514 49.791 7.657 65.645 27.5 15.854 19.852 24.851 49.419 26.983 88.706 2.132 39.292-3.605 69.71-17.213 91.27-13.607 21.56-34.368 33.095-62.271 34.612-27.911 1.514-49.787-7.649-65.645-27.5h-.004z" fill="#fff"/><path d="M388.694 395.749c-15.853-19.843-24.855-49.529-26.999-89.04-2.132-39.287 3.605-69.656 17.221-91.102 13.616-21.447 34.373-32.929 62.283-34.446 27.907-1.514 49.791 7.657 65.645 27.5 15.854 19.852 24.851 49.419 26.983 88.706 2.132 39.292-3.605 69.71-17.213 91.27-13.607 21.56-34.368 33.095-62.271 34.612-27.911 1.514-49.787-7.649-65.645-27.5h-.004z" fill="#B0E4E4"/><path d="M484.522 366.707c6.161-14.322 8.423-36.668 6.775-67.029-1.66-30.58-6.327-52.547-13.99-65.901-7.666-13.353-19.092-19.615-34.27-18.793-15.183.826-25.86 8.345-32.025 22.557-6.173 14.22-8.432 36.505-6.784 66.861 1.648 30.361 6.308 52.328 13.99 65.901 7.675 13.578 19.105 19.953 34.288 19.127 15.178-.822 25.851-8.398 32.016-22.728v.005z" fill="#fff"/><path d="M733.645 363.447v-1.775h33.47v1.775h-33.47zm-616.282 0v-1.775h33.471v1.775h-33.471z" fill="#00999A" stroke="#00999A"/><path d="M737.665 418.663h-34.063a.204.204 0 00-.204.203v1.445c0 .112.092.203.204.203h34.063a.203.203 0 00.204-.203v-1.445a.203.203 0 00-.204-.203z" fill="#C4D4DC"/><path d="M167.615 123.815c6.466 0 12.086-4.695 12.961-11.099.154-1.148.236-2.324.236-3.512 0-14.26-11.561-25.82-25.824-25.82a27.9 27.9 0 00-1.741.065c-1.18-14.061-12.961-25.108-27.329-25.108-15.15 0-27.435 12.28-27.435 27.432 0 .67.033 1.334.082 1.997a27.35 27.35 0 00-14.641-3.442c-13.779.63-25.104 11.653-26.076 25.409-.008.11-.016.22-.02.326-.444 7.482 5.607 13.756 13.102 13.756h96.685v-.004zm674.988 63.322c20.42 0 21.551-30.727 1.156-31.72a33.994 33.994 0 00-12.114 1.595c-2.731-16.633-17.164-29.323-34.572-29.323s-32.473 13.259-34.731 30.429a32.177 32.177 0 00-13.941-3.157c-2.787 0-5.498.354-8.078 1.017-17.855 4.598-14.107 31.163 4.33 31.163h97.958l-.008-.004zM664.447 59.436c20.415 0 21.542-30.719 1.156-31.712a34.138 34.138 0 00-12.114 1.59C650.758 12.687 636.329.001 618.929.001c-17.4 0-32.465 13.256-34.723 30.422a32.17 32.17 0 00-13.937-3.157 32.45 32.45 0 00-8.077 1.017c-17.852 4.597-14.104 31.15 4.329 31.15h97.926v.004zm-8.74 56.445c10.71 11.307 13.64 11.384 24.948.676-11.308 10.708-11.386 13.638-.675 24.945-10.711-11.307-13.64-11.384-24.949-.676 11.309-10.708 11.386-13.638.676-24.945zM264.285 28.302c10.71 11.307 13.64 11.384 24.948.675-11.308 10.71-11.385 13.639-.675 24.946-10.71-11.307-13.64-11.385-24.949-.676 11.309-10.709 11.386-13.638.676-24.945zM158.258 189.838c10.71 11.307 13.64 11.384 24.948.676-11.308 10.708-11.386 13.638-.676 24.945-10.71-11.307-13.64-11.384-24.948-.676 11.308-10.708 11.386-13.638.676-24.945zM35.691 161.162c10.71 11.307 13.64 11.384 24.948.675-11.308 10.709-11.385 13.639-.675 24.946-10.71-11.307-13.64-11.385-24.948-.676 11.308-10.709 11.385-13.638.675-24.945zm744.973 84.458c10.71 11.307 13.64 11.385 24.948.676-11.308 10.709-11.386 13.638-.675 24.945-10.711-11.307-13.64-11.384-24.949-.675 11.309-10.709 11.386-13.639.676-24.946z" fill="#00999A" fill-opacity=".16"/><path d="M394.765 171.391l97.796-28.717a3.452 3.452 0 002.34-4.289L454.986 2.482a3.452 3.452 0 00-4.289-2.34l-66.959 19.66a3.457 3.457 0 00-2.027 1.6l-22.145 38.66a3.46 3.46 0 00-.317 2.69l31.219 106.299a3.451 3.451 0 004.289 2.34h.008z" fill="#fff"/><path d="M394.765 171.391l97.796-28.717a3.452 3.452 0 002.34-4.289L454.986 2.482a3.452 3.452 0 00-4.289-2.34l-66.959 19.66a3.457 3.457 0 00-2.027 1.6l-22.145 38.66a3.46 3.46 0 00-.317 2.69l31.219 106.299a3.451 3.451 0 004.289 2.34h.008z" fill="#00999A" fill-opacity=".08"/><path d="M383.273 21.91l8.163 27.802a3.706 3.706 0 01-2.491 4.589l-29.062 8.67" fill="#00999A" fill-opacity=".05"/><path d="M402.372 124.312l-5.54 1.627a.814.814 0 00-.552 1.011l6.841 23.286a.814.814 0 001.01.551l5.541-1.627a.814.814 0 00.551-1.01l-6.841-23.286a.815.815 0 00-1.01-.552zm30.488-1.243l-5.54 1.627a.815.815 0 00-.552 1.01l4.755 16.186a.814.814 0 001.011.551l5.54-1.627a.814.814 0 00.551-1.01l-4.755-16.185a.814.814 0 00-1.01-.552zm12.113-11.273l-5.54 1.627a.814.814 0 00-.551 1.01l6.841 23.286a.813.813 0 001.01.552l5.54-1.627a.815.815 0 00.552-1.01l-6.841-23.286a.814.814 0 00-1.011-.552zm-30.488 1.243l-5.54 1.627a.815.815 0 00-.552 1.01l8.926 30.384a.814.814 0 001.011.551l5.54-1.627a.814.814 0 00.551-1.01l-8.926-30.383a.814.814 0 00-1.01-.552z" fill="#B0E4E4"/><path d="M381.727 77.436l65.677-19.282m-62.549 29.934l65.674-19.286M387.98 98.735l65.678-19.285" stroke="#B0E4E4" stroke-width="6" stroke-linecap="round" stroke-linejoin="round"/><path d="M529.388 127.476l-.001-.001-32.333-11.61-.993 1.793 29.747 17.435s0 0 0 0a1.348 1.348 0 001.903-.589l.037-.08.005-.005 2.4-5.1-.765-1.843zm0 0c.75.266 1.104 1.12.765 1.843l-.765-1.843z" fill="#00999A" stroke="#00999A"/><path d="M472.265 133.946c14.646 0 26.519-11.871 26.519-26.516 0-14.644-11.873-26.516-26.519-26.516-14.646 0-26.519 11.872-26.519 26.516 0 14.645 11.873 26.516 26.519 26.516z" fill="#B0E4E4"/><path d="M472.266 128.417c11.592 0 20.989-9.396 20.989-20.987 0-11.59-9.397-20.986-20.989-20.986s-20.989 9.396-20.989 20.986c0 11.591 9.397 20.987 20.989 20.987z" fill="#fff"/><path d="M472.265 133.946c14.646 0 26.519-11.871 26.519-26.516 0-14.644-11.873-26.516-26.519-26.516-14.646 0-26.519 11.872-26.519 26.516 0 14.645 11.873 26.516 26.519 26.516z" stroke="#00999A" stroke-width="4" stroke-linecap="round" stroke-linejoin="round"/><path fill-rule="evenodd" clip-rule="evenodd" d="M473.697 115.219a4 4 0 012.479 5.085l-.159.46a4 4 0 11-7.564-2.605l.159-.46a4.001 4.001 0 015.085-2.48zm-1.255-23.964a4 4 0 013.951 4.049l-.159 12.946a4 4 0 01-7.999-.098l.158-12.947a4 4 0 014.049-3.95z" fill="#00999A"/><path d="M727.367 324.035l10.384 51.683-54.878 11.025-10.384-51.683-.098-.49-.491.098-101.858 20.465-8.003-39.833 62.399-159.355 66.469-13.356 26.783 133.285.099.49.49-.098 25.597-5.143 9.48 47.181-25.598 5.143-.49.098.099.49zm-79.749-109.65l-.354-.128-29.567 81.439-.303.836.872-.175 44.151-8.87.49-.098-.099-.491-14.584-72.573-.606.06zm-316.667 90.267l-7.912 47.464-25.75-4.291-.493-.083-.082.494-8.667 51.997-55.214-9.202 8.667-51.997.082-.493-.493-.083-102.482-17.079 6.681-40.078 114.978-126.763 66.876 11.147-22.355 134.1-.082.494.493.082 25.753 4.291zm-69.202-87.09l.293-1.759-1.165 1.351-56.591 65.612-.581.673.878.146 44.419 7.401.493.083.082-.494 12.172-73.013z" fill="#00999A" stroke="#00999A"/><path d="M962 363.943H0v122.061h962V363.943z" fill="#fff"/><path d="M161.673 421.202H127.61a.203.203 0 00-.204.203v1.444c0 .113.091.204.204.204h34.063a.204.204 0 00.204-.204v-1.444a.203.203 0 00-.204-.203zm93.535 0h-34.063a.203.203 0 00-.204.203v1.444c0 .113.091.204.204.204h34.063a.204.204 0 00.204-.204v-1.444a.203.203 0 00-.204-.203zm85.129-21.967h-34.063a.203.203 0 00-.204.203v1.444c0 .113.091.204.204.204h34.063a.204.204 0 00.204-.204v-1.444a.203.203 0 00-.204-.203zm48.414 24.29h-34.063a.203.203 0 00-.204.203v1.445c0 .112.091.203.204.203h34.063a.203.203 0 00.204-.203v-1.445a.203.203 0 00-.204-.203zm119.457 0h-34.063a.203.203 0 00-.204.203v1.445c0 .112.091.203.204.203h34.063a.203.203 0 00.204-.203v-1.445a.203.203 0 00-.204-.203zm133.641-1.371h-34.064a.203.203 0 00-.203.203v1.445c0 .112.091.203.203.203h34.064a.203.203 0 00.203-.203v-1.445a.203.203 0 00-.203-.203zm-424.551-26.479h-34.063a.203.203 0 00-.204.203v1.444c0 .113.091.204.204.204h34.063a.204.204 0 00.204-.204v-1.444a.203.203 0 00-.204-.203zm237.844-.9h-34.064a.203.203 0 00-.203.204v1.444c0 .113.091.204.203.204h34.064a.203.203 0 00.203-.204v-1.444a.203.203 0 00-.203-.204zm242.328-.146h-34.063a.203.203 0 00-.204.203v1.445c0 .112.091.203.204.203h34.063a.203.203 0 00.203-.203v-1.445a.203.203 0 00-.203-.203zm-119.277-8.614h-34.064a.203.203 0 00-.203.204v1.444c0 .113.091.204.203.204h34.064a.203.203 0 00.203-.204v-1.444a.203.203 0 00-.203-.204z" fill="#B0E4E4"/></svg>