<svg width="169" height="55" fill="none" xmlns="http://www.w3.org/2000/svg"><path d="M27.153 1.511h114.694c14.172 0 25.642 11.47 25.642 25.642 0 14.173-11.47 25.642-25.642 25.642H27.153c-14.172 0-25.642-11.47-25.642-25.642 0-14.172 11.47-25.642 25.642-25.642z" stroke="#fff" stroke-width="2.754"/><path d="M61.744 14.953v5.954h1.79c.95 0 1.68-.292 2.265-.84.584-.548.84-1.279.84-2.155 0-.877-.292-1.607-.84-2.155-.548-.548-1.315-.804-2.265-.804h-1.79zm1.79.877c.657 0 1.205.182 1.57.584.402.366.585.877.585 1.534 0 .621-.183 1.133-.584 1.535-.402.401-.914.584-1.571.584h-.877V15.83h.877zm6.136.548c-.62 0-1.168.219-1.607.657-.438.438-.657.986-.657 1.644 0 .657.219 1.205.657 1.643.439.439.95.658 1.607.695.621 0 1.17-.22 1.608-.658.438-.438.657-.986.657-1.644 0-.657-.22-1.205-.657-1.643-.475-.475-.987-.694-1.608-.694zm0 .876c.366 0 .694.146.95.438.256.256.365.622.365 1.023 0 .402-.146.767-.365 1.023a1.326 1.326 0 01-.95.402c-.365 0-.694-.146-.95-.402-.255-.292-.364-.62-.364-1.023 0-.401.109-.767.365-1.023a1.23 1.23 0 01.95-.438zm7.634 2.082l-1.315-2.958h-.329l-1.278 2.995-1.132-2.886h-.987l1.9 4.53h.329l1.351-2.96 1.352 2.96h.328l1.863-4.53H78.4l-1.096 2.85zm5.005-2.958c-.512 0-.95.182-1.279.547v-.438h-.84v4.42h.913v-2.63c0-.621.402-1.023.987-1.023.547 0 .913.402.913 1.023v2.63h.913V18.13c0-1.06-.621-1.753-1.607-1.753zm2.849-2.228v6.757h.913V14.15h-.913zm4.2 2.228c-.621 0-1.17.219-1.607.657-.439.438-.658.986-.658 1.644 0 .657.22 1.205.658 1.643.438.439.95.658 1.607.695.62 0 1.169-.22 1.607-.658.438-.438.657-.986.657-1.644 0-.657-.219-1.205-.657-1.643a2.105 2.105 0 00-1.607-.694zm.036.876c.366 0 .694.146.95.438.256.256.365.622.365 1.023 0 .402-.146.767-.365 1.023a1.326 1.326 0 01-.95.402c-.365 0-.694-.146-.95-.402-.255-.292-.365-.62-.365-1.023 0-.401.11-.767.366-1.023.219-.292.548-.438.95-.438zm4.932-.876c-.767 0-1.352.328-1.79.95l.511.547c.365-.438.767-.657 1.169-.657.584 0 .913.328.913.95v.292h-1.205c-.95 0-1.57.511-1.57 1.278s.584 1.279 1.497 1.279c.584 0 1.023-.183 1.351-.585v.511h.84v-2.666c0-1.242-.694-1.9-1.716-1.9zm-.293 3.908c-.438 0-.73-.22-.73-.585s.255-.547.767-.547h1.096v.073c-.037.62-.512 1.059-1.133 1.059zm6.502-3.251c-.328-.438-.803-.657-1.424-.657-.585 0-1.096.22-1.498.657-.402.439-.584.987-.584 1.644 0 .658.182 1.206.584 1.644.402.438.877.657 1.498.657.657 0 1.169-.255 1.497-.73v.62h.841v-6.757h-.914v2.922zm-1.242 3.105c-.365 0-.694-.146-.95-.402-.255-.255-.365-.62-.365-1.059 0-.438.11-.767.366-1.023.256-.255.548-.401.95-.401.328 0 .657.11.913.365.255.255.365.62.365 1.06 0 .985-.585 1.46-1.279 1.46zm7.89-3.762c-.621 0-1.169.219-1.607.657-.438.438-.658.986-.658 1.644 0 .657.22 1.205.658 1.643.438.439.95.658 1.607.695.621 0 1.169-.22 1.607-.658.439-.438.658-.986.658-1.644 0-.657-.219-1.205-.658-1.643-.475-.475-.986-.694-1.607-.694zm0 .876c.365 0 .694.146.95.438.255.256.365.622.365 1.023 0 .402-.146.767-.365 1.023a1.328 1.328 0 01-.95.402c-.365 0-.694-.146-.95-.402-.255-.292-.365-.62-.365-1.023 0-.401.11-.767.365-1.023.256-.292.585-.438.95-.438zm5.406-.876c-.512 0-.95.182-1.279.547v-.438h-.84v4.42h.913v-2.63c0-.621.402-1.023.987-1.023.547 0 .913.402.913 1.023v2.63h.913V18.13c0-1.06-.584-1.753-1.607-1.753zm7.269 3.762c-.548 0-.841-.183-.841-.767V17.29h1.279v-.804h-1.279V15.32h-.913v1.168h-.694v.804h.694v2.155c0 1.023.585 1.534 1.571 1.534.219 0 .475-.036.767-.11v-.803a2.195 2.195 0 01-.584.073zm3.616-3.762a1.58 1.58 0 00-1.242.548V14.15h-.913v6.757h.913v-2.63c0-.62.402-1.023.986-1.023.548 0 .914.402.914 1.023v2.63h.913v-2.776c0-1.023-.585-1.753-1.571-1.753zm6.757 2.045c0-.584-.182-1.06-.547-1.461-.366-.402-.841-.584-1.389-.584-.62 0-1.132.219-1.57.694-.438.438-.621.986-.621 1.643 0 .658.219 1.206.657 1.644.439.438.987.657 1.644.657.658 0 1.205-.219 1.68-.73l-.438-.658a1.711 1.711 0 01-1.242.512c-.73 0-1.278-.439-1.388-1.169h3.178c0-.183.036-.365.036-.548zm-2.009-1.242c.621 0 1.096.438 1.096 1.096h-2.301c.11-.658.584-1.096 1.205-1.096zM71.35 36.796l-4.748-11.36h-.585l-4.712 11.36h1.827l.767-1.862h4.821l.767 1.862h1.863zM64.52 33.4l1.79-4.639 1.753 4.64H64.52zm12.455-5.115c-1.168 0-2.191.512-2.775 1.389v-1.17h-1.608v11.36h1.717V35.81c.621.804 1.534 1.169 2.666 1.169 1.133 0 2.083-.402 2.813-1.242s1.096-1.863 1.096-3.105-.365-2.264-1.096-3.105c-.73-.84-1.68-1.242-2.813-1.242zm-.292 7.05c-.657 0-1.242-.219-1.717-.694-.474-.475-.694-1.132-.694-2.045 0-1.79 1.096-2.703 2.411-2.703.694 0 1.279.255 1.754.767.474.511.694 1.169.694 1.972 0 .804-.22 1.425-.694 1.936a2.299 2.299 0 01-1.754.767zm10.191-7.05c-1.169 0-2.192.512-2.776 1.389v-1.17h-1.607v11.36h1.717V35.81c.62.804 1.534 1.169 2.666 1.169s2.082-.402 2.813-1.242c.73-.84 1.095-1.863 1.095-3.105s-.365-2.264-1.095-3.105c-.73-.84-1.68-1.242-2.813-1.242zm-.256 7.05c-.657 0-1.242-.219-1.716-.694-.475-.475-.694-1.132-.694-2.045 0-1.79 1.095-2.703 2.41-2.703.694 0 1.279.255 1.754.767.475.511.694 1.169.694 1.972 0 .804-.22 1.425-.694 1.936-.512.512-1.06.767-1.754.767zm13.406-9.899c-.95 0-1.754.293-2.41.84-.658.549-.987 1.28-.987 2.192 0 1.425.913 2.338 2.484 3.105l1.169.584c1.132.548 1.57.877 1.57 1.68 0 .95-.73 1.571-1.863 1.571-1.096 0-2.009-.584-2.812-1.79l-1.206.95c.84 1.498 2.302 2.411 4.055 2.411 1.023 0 1.899-.292 2.557-.877.694-.584 1.022-1.388 1.022-2.337 0-1.462-.84-2.338-2.556-3.178l-1.206-.585c-1.096-.547-1.497-.84-1.497-1.607 0-.877.73-1.351 1.607-1.351.913 0 1.68.474 2.264 1.351l1.206-.95c-.621-1.205-1.9-2.009-3.397-2.009zm8.985 9.936c-1.023 0-1.57-.366-1.57-1.425v-3.945h2.374v-1.534h-2.374v-2.192h-1.717v2.192h-1.315v1.534h1.315v4.055c0 1.936 1.096 2.885 2.922 2.885.402 0 .877-.073 1.424-.182v-1.498c-.474.073-.803.11-1.059.11zM115 28.285a4.14 4.14 0 00-2.996 1.242c-.803.84-1.205 1.863-1.205 3.069 0 1.205.402 2.264 1.205 3.068.804.84 1.79 1.242 2.996 1.278 1.168 0 2.155-.438 2.995-1.242.84-.84 1.242-1.862 1.242-3.104 0-1.206-.439-2.265-1.242-3.069A4.14 4.14 0 00115 28.285zm.036 1.644c.694 0 1.279.256 1.753.804.475.511.731 1.132.731 1.936 0 .767-.256 1.388-.731 1.936a2.297 2.297 0 01-1.753.767c-.73 0-1.315-.256-1.753-.767-.475-.512-.694-1.17-.694-1.936 0-.767.219-1.425.694-1.936.438-.548 1.023-.804 1.753-.804zm9.753-1.534c-.986 0-1.754.402-2.338 1.169v-1.096h-1.607v8.292h1.717v-4.42c0-1.461.986-2.301 2.337-2.301h.512v-1.57a2.623 2.623 0 00-.621-.074zm9.022 3.689c0-1.096-.365-2.009-1.059-2.74-.694-.73-1.571-1.095-2.63-1.095-1.169 0-2.155.438-2.922 1.278-.804.84-1.169 1.863-1.169 3.069 0 1.241.402 2.264 1.206 3.104.803.84 1.826 1.242 3.068 1.242 1.205 0 2.264-.438 3.178-1.351l-.804-1.206c-.731.658-1.498.986-2.338.986-1.388 0-2.374-.803-2.593-2.191h5.954c.036-.365.109-.73.109-1.096zm-3.762-2.301c1.169 0 2.046.803 2.046 2.045h-4.347c.256-1.241 1.169-2.045 2.301-2.045zm-76.669-3.36c-.037-3.178 2.775-4.712 2.885-4.785-1.57-2.155-4.055-2.448-4.895-2.484-2.045-.22-4.054 1.169-5.113 1.169-1.06 0-2.703-1.133-4.42-1.096-2.228.036-4.347 1.242-5.48 3.141-2.373 3.835-.62 9.497 1.681 12.602 1.132 1.534 2.447 3.214 4.2 3.178 1.717-.073 2.338-1.023 4.384-1.023 2.045 0 2.63 1.023 4.42.986 1.826-.036 2.995-1.534 4.09-3.068 1.315-1.753 1.827-3.47 1.863-3.543-.073-.037-3.58-1.279-3.616-5.077zm-3.361-9.278c.913-1.06 1.534-2.52 1.351-4.018-1.315.037-2.995.84-3.945 1.9-.84.913-1.607 2.447-1.388 3.871 1.498.11 3.032-.73 3.982-1.753z" fill="#fff"/></svg>