<svg width="179" height="48" fill="none" xmlns="http://www.w3.org/2000/svg"><path d="M178.467 22.17c.449-6.56-3.858-12.382-10.258-13.85a13.059 13.059 0 00-9.965 1.704 13.17 13.17 0 00-5.356 6.626 7.302 7.302 0 01-.698-4.038 7.303 7.303 0 012.712-4.922c2.78-2.23 6.852-2.095 9.47.317l3.997-4.38c-4.822-4.444-12.036-4.689-17.167-.573-5.238 4.199-6.446 11.615-3.073 17.233-3.265-.728-5.713-3.66-5.713-7.172 0-3.511 2.646-6.691 6.154-7.24L147.657 0c-6.464 1.016-11.154 6.533-11.154 13.13 0 6.596 5.014 12.306 11.489 13.158a7.212 7.212 0 01-3.763 1.583 7.23 7.23 0 01-5.378-1.563c-2.784-2.23-3.557-6.25-1.799-9.35l-5.14-2.942c-3.239 5.713-1.87 12.836 3.262 16.949a13.105 13.105 0 008.221 2.89 13.17 13.17 0 009.178-3.716c.021 3.361-2.279 6.415-5.684 7.198-3.468.794-7.079-1.102-8.396-4.418L133 35.124c2.045 5.146 6.907 8.346 12.217 8.346.991 0 1.996-.112 3.001-.343 6.532-1.499 10.824-7.655 10.209-14.188a7.368 7.368 0 012.053 8.953c-1.543 3.224-5.269 4.876-8.671 3.842l-1.71 5.69a13.29 13.29 0 003.855.576c4.954 0 9.596-2.818 11.861-7.543a13.255 13.255 0 00.567-10.145 13.172 13.172 0 00-5.235-6.72 7.207 7.207 0 014.072.215 7.268 7.268 0 014.17 3.753c1.543 3.224.504 7.18-2.417 9.21l3.359 4.892c5.384-3.735 7.228-10.749 4.379-16.695a13.152 13.152 0 00-7.54-6.77 13.048 13.048 0 00-8.491-.077 7.267 7.267 0 012.706-3.065 7.218 7.218 0 015.518-.935c3.471.797 5.902 4.078 5.659 7.64l5.899.41h.006z" fill="#00999A"/><path d="M2.795 9.218v10.753H0V6.17h2.775c1.06 0 1.519.544 1.937 1.07l5.673 7.04 5.673-7.04c.419-.523.877-1.07 1.937-1.07h2.775v13.8h-2.795V9.218l-6.49 7.91H9.288l-6.49-7.91h-.003zm39.768 10.754h-3.077l-1.738-3.411H27.682l-1.738 3.41h-3.057L28.48 8.897c.857-1.715 1.897-2.924 4.233-2.924 2.337 0 3.357 1.211 4.234 2.924l5.616 11.076zM34.135 9.48c-.3-.584-.678-.947-1.419-.947-.74 0-1.12.363-1.419.947L28.981 14h7.45l-2.296-4.52zm21.955 7.942c1.677 0 2.353-.556 2.353-1.325 0-.927-.818-1.393-2.775-1.554l-6.61-.524c-3.077-.242-4.912-1.353-4.912-3.894 0-2.925 2.436-3.955 5.254-3.955h11.105v2.582H49.14c-1.339 0-2.097.362-2.097 1.292 0 .766.519 1.172 2.755 1.353l6.291.504c3.217.261 5.294 1.292 5.294 4.075 0 2.34-1.479 3.995-5.334 3.995H44.086V17.39c3.91 0 9.53.032 12.003.032zM63.914 6.17H75.14c4.892 0 6.57 2.36 6.57 6.9 0 4.538-1.678 6.898-6.57 6.898H63.914V6.17zM75.14 8.973h-8.368v8.172h8.368c3.256 0 3.655-1.434 3.655-4.076 0-2.642-.399-4.096-3.655-4.096zm23.947 10.999L97.35 16.56H87.283l-1.738 3.41h-3.057l5.593-11.075c.858-1.715 1.898-2.924 4.234-2.924 2.336 0 3.356 1.211 4.234 2.924l5.613 11.076h-3.075zM93.737 9.48c-.3-.584-.678-.947-1.42-.947-.74 0-1.119.363-1.418.947L88.583 14h7.45l-2.296-4.52zm22.391-3.31c3.357 0 5.434 1.534 5.434 4.297 0 1.937-1.02 3.129-2.795 3.653 1.738.564 2.495 1.695 2.495 3.129v2.722h-2.954v-2.783c0-.766-.419-1.756-2.237-1.756h-8.946v4.54h-2.855V6.17h11.858zm.22 6.698c1.758 0 2.296-1.172 2.296-2.078 0-.907-.538-2.079-2.296-2.079h-9.229v4.157h9.229zM77.575 31.03H66.77c-3.277 0-3.675 1.453-3.675 4.096 0 2.642.398 4.076 3.675 4.076h10.804v2.823H66.77c-4.912 0-6.59-2.36-6.59-6.9 0-4.538 1.678-6.898 6.59-6.898h10.804v2.803zm5.576-2.803v13.801h-2.855V28.227h2.855zm8.865 13.801V30.83h-6.79v-2.602h16.437v2.602h-6.789v11.197h-2.858zm14.263-13.801l4.194 5.106c.419.523.958 1.047 1.359 1.755.399-.705.938-1.232 1.379-1.755l4.194-5.106h4.154l-6.749 7.446c-.439.483-1.539 1.574-1.539 2.4v3.955h-2.855v-3.955c0-.846-1.119-1.937-1.538-2.4l-6.75-7.446h4.154-.003z" fill="#343B41"/></svg>