<svg width="201" height="54" fill="none" xmlns="http://www.w3.org/2000/svg"><path d="M200.775 24.94c.506-7.378-4.339-13.928-11.54-15.58a14.692 14.692 0 00-11.211 1.917A14.811 14.811 0 00172 18.731a8.221 8.221 0 01-.787-4.543 8.223 8.223 0 013.051-5.537c3.129-2.509 7.71-2.357 10.654.357l4.498-4.928c-5.426-5-13.541-5.275-19.314-.645-5.892 4.724-7.252 13.068-3.457 19.388-3.672-.819-6.427-4.118-6.427-8.068 0-3.95 2.977-7.528 6.923-8.147L166.114 0c-7.272 1.143-12.549 7.35-12.549 14.77 0 7.422 5.641 13.846 12.926 14.804a8.11 8.11 0 01-4.234 1.78 8.133 8.133 0 01-6.05-1.757c-3.131-2.51-4.001-7.033-2.023-10.52l-5.783-3.309c-3.644 6.427-2.104 14.44 3.67 19.068a14.74 14.74 0 009.249 3.25c3.759 0 7.49-1.428 10.325-4.18.023 3.782-2.564 7.217-6.395 8.098-3.901.894-7.964-1.24-9.446-4.97l-6.179 2.48c2.301 5.79 7.771 9.39 13.744 9.39 1.114 0 2.245-.127 3.376-.386 7.349-1.687 12.178-8.612 11.485-15.962a8.289 8.289 0 012.31 10.073c-1.736 3.626-5.928 5.485-9.755 4.322l-1.923 6.401c1.443.438 2.902.648 4.336.648 5.573 0 10.796-3.17 13.344-8.486a14.916 14.916 0 00.638-11.414 14.822 14.822 0 00-5.889-7.56 8.108 8.108 0 014.581.243 8.177 8.177 0 014.691 4.222c1.736 3.627.567 8.079-2.72 10.361l3.779 5.504c6.057-4.202 8.132-12.093 4.926-18.782a14.791 14.791 0 00-8.482-7.615 14.678 14.678 0 00-9.552-.088 8.173 8.173 0 013.044-3.448 8.122 8.122 0 016.208-1.052c3.905.897 6.64 4.588 6.366 8.596l6.637.46h.006zM3.144 10.37v12.098H0V6.941h3.122c1.192 0 1.708.612 2.18 1.205l6.381 7.92 6.382-7.92c.471-.59.987-1.205 2.18-1.205h3.121v15.527h-3.144V10.37l-7.302 8.9h-2.47l-7.303-8.9h-.004zm44.739 12.098h-3.462l-1.955-3.837H31.142l-1.955 3.837h-3.44l6.292-12.46c.965-1.93 2.135-3.29 4.764-3.29 2.628 0 3.775 1.363 4.763 3.29l6.314 12.46h.003zm-9.481-11.803c-.337-.657-.763-1.065-1.596-1.065-.834 0-1.26.408-1.596 1.065l-2.606 5.084h8.381l-2.583-5.084zm24.852 8.898c1.888 0 2.494-.589 2.494-1.453 0-1.043-.92-1.568-3.122-1.749l-7.436-.59c-3.462-.271-5.526-1.521-5.526-4.38 0-3.29 2.74-4.45 5.91-4.45H68.07v2.905H55.283c-1.507 0-2.36.408-2.36 1.454 0 .861.584 1.318 3.1 1.522l7.077.566c3.62.295 5.956 1.454 5.956 4.586 0 2.632-1.664 4.494-6 4.494h-13.46v-2.905h13.662-.004zm8.649-12.622h12.63c5.502 0 7.39 2.656 7.39 7.762 0 5.107-1.888 7.762-7.39 7.762h-12.63V6.94zm12.63 3.154h-9.415v9.193h9.414c3.664 0 4.112-1.612 4.112-4.585s-.448-4.608-4.112-4.608zm30.402 12.373h-3.462l-1.955-3.837H98.194l-1.955 3.837h-3.44l6.292-12.46c.965-1.93 2.135-3.29 4.763-3.29 2.629 0 3.776 1.363 4.763 3.29l6.315 12.46h.003zm-9.481-11.803c-.337-.657-.763-1.065-1.597-1.065-.833 0-1.259.408-1.596 1.065l-2.606 5.084h8.382l-2.583-5.084zm11.844-3.724h13.347c3.775 0 6.112 1.726 6.112 4.835 0 2.18-1.147 3.52-3.144 4.109 1.955.635 2.808 1.907 2.808 3.52v3.063h-3.324v-3.131c0-.862-.472-1.976-2.517-1.976h-10.064v5.107h-3.212V6.941h-.006zm13.593 7.535c1.978 0 2.584-1.318 2.584-2.338s-.606-2.337-2.584-2.337H120.51v4.675h10.381zM87.272 34.909H75.117c-3.686 0-4.134 1.635-4.134 4.608 0 2.972.448 4.585 4.134 4.585h12.155v3.176H75.117c-5.526 0-7.413-2.655-7.413-7.761 0-5.107 1.888-7.762 7.413-7.762h12.155v3.154zm6.273-3.154v15.527h-3.212V31.755h3.212zm9.974 15.526V34.685H95.88v-2.927h18.492v2.927h-7.639v12.596h-3.214zm16.045-15.526l4.719 5.744c.471.59 1.076 1.179 1.528 1.975.449-.793 1.055-1.385 1.552-1.975l4.718-5.744h4.673l-7.593 8.377c-.494.544-1.731 1.771-1.731 2.7v4.45h-3.212v-4.45c0-.952-1.259-2.179-1.73-2.7l-7.594-8.377h4.674-.004z" fill="#fff"/></svg>