<svg width="169" height="55" fill="none" xmlns="http://www.w3.org/2000/svg"><path d="M27.153 1.963h114.694c14.172 0 25.642 11.47 25.642 25.642 0 14.172-11.47 25.642-25.642 25.642H27.153c-14.172 0-25.642-11.47-25.642-25.642 0-14.136 11.47-25.642 25.642-25.642z" stroke="#fff" stroke-width="2.754"/><path d="M43.846 27.093L31.39 15.441c-.11.292-.22.585-.22.986V37.87c0 .401.11.694.22.986l12.456-11.762zm1.461 0l4.164 3.872 4.566-2.41c1.461-.768 1.461-2.046 0-2.813l-4.675-2.52-4.055 3.871zm-.731-.693l3.835-3.69-14.647-7.743c-.62-.293-1.242-.402-1.644-.183l12.456 11.615zm0 1.35L32.12 39.477c.402.183 1.023.11 1.754-.183l14.72-7.743-4.018-3.8zm19.798-11.505c-.84 0-1.571.292-2.156.877-.584.584-.876 1.315-.876 2.191 0 .877.292 1.607.876 2.192.585.584 1.315.877 2.156.877a2.988 2.988 0 002.666-1.571v-1.68h-2.703v.84h1.753v.657c-.401.621-.95.913-1.716.913-.621 0-1.133-.219-1.535-.62-.401-.439-.584-.95-.584-1.608 0-.62.183-1.169.584-1.57.366-.402.877-.621 1.498-.621.73 0 1.278.328 1.717.95l.657-.585c-.511-.804-1.315-1.242-2.337-1.242zm3.836.11v5.953h3.87v-.84h-2.958v-1.9h2.155v-.84h-2.155v-1.533h2.85v-.84h-3.763zm4.346 0v.84h1.936v5.113h.913v-5.113h1.936v-.84h-4.785zm7.671 0v5.953h.913v-5.953h-.913zm1.789 0v.84h1.936v5.113h.914v-5.113h1.936v-.84h-4.786zm10.3-.11c-.84 0-1.57.292-2.155.877-.584.584-.876 1.315-.876 2.191 0 .877.292 1.607.876 2.192.585.584 1.279.877 2.155.877.84 0 1.534-.293 2.119-.877.584-.585.877-1.315.877-2.192 0-.876-.293-1.607-.877-2.191-.548-.585-1.279-.877-2.119-.877zm0 .877c.585 0 1.096.219 1.461.62.402.402.585.95.585 1.571 0 .658-.183 1.17-.585 1.57-.401.403-.876.622-1.46.622-.585 0-1.096-.22-1.462-.621-.401-.438-.584-.95-.584-1.57 0-.622.183-1.17.584-1.571.402-.402.877-.621 1.461-.621zm7.927 3.25l-3.47-4.127h-.328v6.063h.913v-4.017l3.506 4.127h.329v-6.063h-.913v4.017h-.037zm-33.605 6.356c-1.497 0-2.74.511-3.762 1.57-1.023 1.024-1.534 2.302-1.534 3.836 0 1.534.511 2.813 1.534 3.835 1.023 1.023 2.265 1.535 3.762 1.535 2.01 0 3.799-1.096 4.676-2.74v-2.922h-4.712v1.498h3.104v1.132c-.694 1.06-1.68 1.57-2.995 1.57-1.096 0-1.972-.365-2.666-1.095s-1.023-1.68-1.023-2.813c0-1.096.329-2.009.986-2.74.658-.73 1.534-1.095 2.594-1.095 1.242 0 2.264.548 2.995 1.643l1.169-.986c-.95-1.497-2.338-2.228-4.128-2.228zm9.279 2.667a3.862 3.862 0 00-2.813 1.168c-.767.767-1.132 1.754-1.132 2.886 0 1.132.365 2.119 1.132 2.886.767.767 1.68 1.168 2.813 1.168 1.095 0 2.008-.401 2.812-1.168.767-.804 1.169-1.754 1.169-2.886 0-1.132-.402-2.119-1.169-2.886a3.862 3.862 0 00-2.812-1.168zm.036 1.534c.658 0 1.206.255 1.644.73.438.475.657 1.06.657 1.79 0 .694-.219 1.315-.657 1.79-.438.475-.986.694-1.644.694-.657 0-1.205-.22-1.644-.694-.438-.475-.657-1.096-.657-1.79 0-.73.22-1.315.657-1.79.402-.511.95-.73 1.644-.73zm8.474-1.534a3.862 3.862 0 00-2.813 1.168c-.767.767-1.132 1.754-1.132 2.886 0 1.132.365 2.119 1.132 2.886.767.767 1.68 1.168 2.813 1.168 1.096 0 2.009-.401 2.812-1.168.767-.804 1.17-1.754 1.17-2.886 0-1.132-.403-2.119-1.17-2.886a3.862 3.862 0 00-2.812-1.168zm.036 1.534c.658 0 1.206.255 1.644.73.438.475.657 1.06.657 1.79 0 .694-.219 1.315-.657 1.79-.438.475-.986.694-1.644.694-.657 0-1.205-.22-1.643-.694-.439-.475-.658-1.096-.658-1.79 0-.73.22-1.315.658-1.79.401-.511.95-.73 1.643-.73zm10.885-.256c-.584-.84-1.461-1.278-2.63-1.278-1.06 0-1.9.365-2.593 1.095-.694.73-1.023 1.644-1.023 2.813 0 1.132.365 2.082 1.023 2.812.694.731 1.534 1.096 2.593 1.096 1.096 0 1.9-.365 2.52-1.096v.548c0 1.461-.876 2.229-2.228 2.229-.876 0-1.753-.366-2.63-1.096l-.876 1.169c.986.986 2.191 1.46 3.58 1.46 2.264 0 3.725-1.387 3.725-3.835v-6.94h-1.46v1.023zm-2.374 5.04c-.658 0-1.169-.218-1.644-.657-.438-.475-.657-1.06-.657-1.753 0-.694.219-1.278.657-1.753.439-.439.986-.658 1.644-.658 1.242 0 2.264.804 2.264 2.374 0 .804-.219 1.388-.657 1.827-.475.401-.986.62-1.607.62zm5.37-10.227v11.835h1.607V25.486h-1.607zm10.008 7.452c0-1.023-.329-1.863-.986-2.557-.658-.694-1.461-1.023-2.448-1.023-1.095 0-2.009.402-2.739 1.169-.731.767-1.096 1.753-1.096 2.886 0 1.169.365 2.118 1.132 2.885.768.767 1.717 1.17 2.886 1.17 1.132 0 2.119-.403 2.995-1.243l-.767-1.132c-.657.62-1.388.913-2.191.913-1.279 0-2.229-.767-2.448-2.045h5.552c.073-.33.11-.694.11-1.023zm-3.507-2.119c1.096 0 1.9.73 1.9 1.9h-4.055c.256-1.17 1.096-1.9 2.155-1.9zm8.182-3.909v10.411h1.607v-4.018h2.046c1.023 0 1.826-.292 2.484-.877.621-.584.949-1.388.949-2.337 0-.95-.328-1.717-.949-2.301-.621-.585-1.461-.877-2.484-.877h-3.653zm3.653 1.462c1.132 0 1.79.694 1.79 1.717 0 1.023-.658 1.716-1.79 1.716h-2.009v-3.433h2.009zm4.346-2.886v11.835h1.608V25.486h-1.608zm6.028 3.909c-1.352 0-2.411.547-3.141 1.643l.913.986c.621-.767 1.315-1.168 2.082-1.168 1.022 0 1.607.584 1.607 1.643v.512h-2.119c-1.68 0-2.739.876-2.739 2.228 0 1.351 1.023 2.228 2.593 2.228 1.023 0 1.827-.365 2.374-1.06v.877h1.498V32.61c0-2.046-1.205-3.215-3.068-3.215zm-.475 6.83c-.767 0-1.315-.365-1.315-1.023 0-.62.438-.95 1.315-.95h1.899v.147c.037 1.059-.84 1.826-1.899 1.826zm7.999-.986l-2.155-5.662h-1.717l2.995 7.415-.292.73c-.365.877-.877 1.133-1.644 1.133-.109 0-.401 0-.876-.073v1.388c.401.11.84.146 1.242.146 1.278 0 2.118-.658 2.739-2.119l3.653-8.62h-1.717l-2.228 5.662z" fill="#fff"/></svg>