<?xml version="1.0" encoding="utf-8"?>
<!-- Generator: Adobe Illustrator 26.0.2, SVG Export Plug-In . SVG Version: 6.00 Build 0)  -->
<svg version="1.1" id="Layer_1" xmlns="http://www.w3.org/2000/svg" xmlns:xlink="http://www.w3.org/1999/xlink" x="0px" y="0px"
	 viewBox="0 0 724.3 383.2" style="enable-background:new 0 0 724.3 383.2;" xml:space="preserve">
<style type="text/css">
	.st0{fill:none;stroke:#00999A;stroke-width:2;stroke-miterlimit:10;}
</style>
<path class="st0" d="M228.1,23.9c0,0,163-15.5,256.7,1.3c87,15.6,54.5,85.5,52.8,93.3c-4.4,23.2-37.5,81.9-48.3,91.5
	c-14.7,13.1-32.4,38.9-80.1,42.9s-68.6,1.3-95.8-0.1c-32.6-1.7-64.6-11-96.2-58.8c-28.4-42.9-34.8-65.2-43.2-95.5
	C158,39.6,228.1,23.9,228.1,23.9z"/>
<path class="st0" d="M207.7,9.8c0,0,193.9-22,301.6,0c86.9,17.7,107.9,60.6,136.3,102.3C674,153.9,713.2,242,713.2,242
	s4.9,2.6,6.8,6.3c4.6,8.9,4.4,73.8,0,79.1s-39.6,28.2-105.1,31.3c-65.5,3.1-519.9-1.9-519.9-1.9S31.8,356,7.2,327.4
	c-16.1-88.7,2.7-89.6,27.6-152.9c8.9-22.6,69-112.5,81.4-122.8C136.1,35.4,151.8,17.4,207.7,9.8L207.7,9.8z"/>
<path class="st0" d="M42.4,225.6c2.7-10.6,35.2-86.9,63.2-122.8C133.7,67,167.4,30,202.2,22s132.2-22,300.7-4.6
	c51.9,5.3,83.3,52.7,97.7,73.2c14.4,20.6,74.6,121.3,73.5,128.5c-1.1,7.2-4.2,53.4-57.2,54.5s-503.3-0.4-517.3,2.3
	C85.6,278.6,35.2,254.2,42.4,225.6L42.4,225.6z"/>
<path class="st0" d="M53.4,217.2c0,0,131.8-3.8,134.8-2.3s6.4,8,6.4,8S88.9,222.1,53.4,217.2L53.4,217.2z"/>
<path class="st0" d="M666.9,217.2c0,0-131.8-3.8-134.8-2.3s-6.4,8-6.4,8S631.4,222.1,666.9,217.2L666.9,217.2z"/>
<path class="st0" d="M4.5,266.1c0,0,10.6,43.6,6,57.3"/>
<path class="st0" d="M39,173.3c0,0,5.7-2.1,9.1,0s4.1,16.6-6.4,31.2c-10.5,14.6-25.3,26.3-30.1,31.3"/>
<path class="st0" d="M676.3,172.4c0,0-15.9,2.9-7.2,21.9c8.7,19.1,32.6,38.8,36,41.5"/>
<path class="st0" d="M51.9,289.3c0,0,301.8-16.8,600.6-2.7"/>
<path class="st0" d="M61.7,302.6c-4.9,10.7-12.1,24-14,38.5"/>
<path class="st0" d="M652.5,302.6c4.9,10.7,12.1,24,14,38.5"/>
<path class="st0" d="M126.1,362.1c0,0,28.1,45.3,70.4,0"/>
<path class="st0" d="M533.5,362.1c0,0,28.1,45.3,70.4,0"/>
<path class="st0" d="M126.1,51c0,0,99.5,260.4,110.6,267.2c5.1,3.1,254.1-1.1,254.1-1.1s92.4-250.7,94.1-268.4"/>
</svg>
