<svg width="51" height="51" viewBox="0 0 51 51" fill="none" xmlns="http://www.w3.org/2000/svg">
<path d="M30.4372 45.8041C41.6985 43.0297 48.5784 31.6516 45.8041 20.3903C43.0297 9.12905 31.6516 2.24907 20.3903 5.02344C9.12906 7.7978 2.24907 19.1759 5.02344 30.4372C7.79781 41.6985 19.1759 48.5784 30.4372 45.8041Z" stroke="#1B313B" stroke-width="2" stroke-linejoin="round"/>
<path d="M25.4151 46.4111C20.3751 46.4111 16.2051 38.5911 15.5151 28.4111" stroke="#1B313B" stroke-width="2" stroke-linejoin="round"/>
<path d="M25.4152 4.41113V46.4111" stroke="#1B313B" stroke-width="2" stroke-linejoin="round"/>
<path d="M30.6652 15.1011C28.9852 15.3111 27.2252 15.4111 25.4152 15.4111C19.0052 15.4111 13.2652 14.0411 9.41516 11.8911" stroke="#1B313B" stroke-width="2" stroke-linejoin="round"/>
<path d="M31.4152 35.8211C29.5152 35.5511 27.4952 35.4111 25.4152 35.4111C19.0052 35.4111 13.2652 36.7811 9.41516 38.9311" stroke="#1B313B" stroke-width="2" stroke-linejoin="round"/>
<path d="M15.4152 28.4111C17.072 28.4111 18.4152 27.068 18.4152 25.4111C18.4152 23.7543 17.072 22.4111 15.4152 22.4111C13.7583 22.4111 12.4152 23.7543 12.4152 25.4111C12.4152 27.068 13.7583 28.4111 15.4152 28.4111Z" stroke="#1B313B" stroke-width="2" stroke-linejoin="round"/>
<path d="M12.4152 25.4111H4.41516" stroke="#1B313B" stroke-width="2" stroke-linejoin="round"/>
<path d="M46.4152 25.4111H18.4152" stroke="#1B313B" stroke-width="2" stroke-linejoin="round"/>
<path d="M33.4152 17.4111C35.072 17.4111 36.4152 16.068 36.4152 14.4111C36.4152 12.7543 35.072 11.4111 33.4152 11.4111C31.7583 11.4111 30.4152 12.7543 30.4152 14.4111C30.4152 16.068 31.7583 17.4111 33.4152 17.4111Z" stroke="#1B313B" stroke-width="2" stroke-linejoin="round"/>
<path d="M15.5151 22.4111C16.2051 12.2311 20.3751 4.41113 25.4151 4.41113" stroke="#1B313B" stroke-width="2" stroke-linejoin="round"/>
<path d="M34.4152 39.4111C36.072 39.4111 37.4152 38.068 37.4152 36.4111C37.4152 34.7543 36.072 33.4111 34.4152 33.4111C32.7583 33.4111 31.4152 34.7543 31.4152 36.4111C31.4152 38.068 32.7583 39.4111 34.4152 39.4111Z" stroke="#1B313B" stroke-width="2" stroke-linejoin="round"/>
<path d="M32.8652 39.4111C31.0352 43.7111 28.3752 46.4111 25.4152 46.4111" stroke="#1B313B" stroke-width="2" stroke-linejoin="round"/>
<path d="M34.6652 17.4111C35.1452 19.8811 35.4152 22.5811 35.4152 25.4111C35.4152 28.2411 35.1452 30.9411 34.6652 33.4111" stroke="#1B313B" stroke-width="2" stroke-linejoin="round"/>
<path d="M25.4152 4.41113C28.3752 4.41113 31.0352 7.11113 32.8652 11.4111" stroke="#1B313B" stroke-width="2" stroke-linejoin="round"/>
<path d="M41.4152 38.9311C40.2152 38.2611 38.8452 37.6711 37.3152 37.1711" stroke="#1B313B" stroke-width="2" stroke-linejoin="round"/>
<path d="M41.4151 11.8911C39.9751 12.6911 38.2751 13.3911 36.3751 13.9411" stroke="#1B313B" stroke-width="2" stroke-linejoin="round"/>
</svg>
