<svg width="72" height="71" viewBox="0 0 72 71" fill="none" xmlns="http://www.w3.org/2000/svg">
<path d="M70.9999 20.091V15.3183C70.9999 14.2047 66.7045 12.1365 63.0454 12.1365C59.3863 12.1365 55.0908 14.2047 55.0908 15.3183V20.091" stroke="#00999A" stroke-width="2" stroke-linejoin="round"/>
<path d="M58.2725 5.77273C58.2725 3.35455 60.5793 1 63.0452 1C65.5111 1 67.8179 3.35455 67.8179 5.77273V7.36364C67.8179 9.78182 65.5111 12.1364 63.0452 12.1364C60.5793 12.1364 58.2725 9.78182 58.2725 7.36364V5.77273Z" stroke="#00999A" stroke-width="2" stroke-linejoin="round"/>
<path d="M70.9999 71V66.2272C70.9999 65.1136 66.7045 63.0454 63.0454 63.0454C59.3863 63.0454 55.0908 65.1136 55.0908 66.2272V71" stroke="#00999A" stroke-width="2" stroke-linejoin="round"/>
<path d="M58.2725 56.6819C58.2725 54.2637 60.5793 51.9092 63.0452 51.9092C65.5111 51.9092 67.8179 54.2637 67.8179 56.6819V58.2728C67.8179 60.691 65.5111 63.0455 63.0452 63.0455C60.5793 63.0455 58.2725 60.691 58.2725 58.2728V56.6819Z" stroke="#00999A" stroke-width="2" stroke-linejoin="round"/>
<path d="M36.0797 58.2729C47.4865 58.2729 56.7137 49.0297 56.6819 37.6229C56.6501 26.2161 47.391 16.9729 35.9842 16.9729C24.5774 16.9729 15.3501 26.2161 15.3819 37.6229C15.4137 49.0297 24.6728 58.2729 36.0797 58.2729Z" stroke="#00999A" stroke-width="2" stroke-linejoin="round"/>
<path d="M66.2276 47.6455C67.2617 44.4955 67.8185 41.1228 67.8185 37.6228C67.8185 31.816 66.2276 26.3751 63.4912 21.6819" stroke="#00999A" stroke-width="2" stroke-linejoin="round"/>
<path d="M1 20.091V15.3183C1 14.2047 5.29545 12.1365 8.95455 12.1365C12.6136 12.1365 16.9091 14.2047 16.9091 15.3183V20.091" stroke="#00999A" stroke-width="2" stroke-linejoin="round"/>
<path d="M13.7271 5.77273C13.7271 3.35455 11.4203 1 8.95437 1C6.48846 1 4.18164 3.35455 4.18164 5.77273V7.36364C4.18164 9.78182 6.48846 12.1364 8.95437 12.1364C11.4203 12.1364 13.7271 9.78182 13.7271 7.36364V5.77273Z" stroke="#00999A" stroke-width="2" stroke-linejoin="round"/>
<path d="M1 71V66.2272C1 65.1136 5.29545 63.0454 8.95455 63.0454C12.6136 63.0454 16.9091 65.1136 16.9091 66.2272V71" stroke="#00999A" stroke-width="2" stroke-linejoin="round"/>
<path d="M13.7271 56.6819C13.7271 54.2637 11.4203 51.9092 8.95437 51.9092C6.48846 51.9092 4.18164 54.2637 4.18164 56.6819V58.2728C4.18164 60.691 6.48846 63.0455 8.95437 63.0455C11.4203 63.0455 13.7271 60.691 13.7271 58.2728V56.6819Z" stroke="#00999A" stroke-width="2" stroke-linejoin="round"/>
<path d="M5.70907 47.6455C4.67498 44.4955 4.11816 41.1228 4.11816 37.6228C4.11816 31.816 5.70905 26.3751 8.44541 21.6819" stroke="#00999A" stroke-width="2" stroke-linejoin="round"/>
<path d="M21.6182 66.0679C25.8977 68.2156 30.7182 69.4088 35.825 69.4088H36.0954C41.2022 69.4088 46.0386 68.1997 50.3023 66.052" stroke="#00999A" stroke-width="2" stroke-linejoin="round"/>
<path d="M20.043 10.0841C24.7362 7.36361 30.193 5.77271 35.9998 5.77271H35.9521C41.7589 5.77271 47.2157 7.3477 51.9089 10.0682" stroke="#00999A" stroke-width="2" stroke-linejoin="round"/>
<path d="M35.968 16.9092C29.7952 16.9092 24.7998 26.1683 24.7998 37.591C24.7998 49.0137 29.7952 58.2728 35.968 58.2728C42.1407 58.2728 47.1362 49.0137 47.1362 37.591C47.1362 26.1683 42.1407 16.9092 35.968 16.9092Z" stroke="#00999A" stroke-width="2" stroke-linejoin="round"/>
<path d="M55.091 29.6365H16.9092" stroke="#00999A" stroke-width="2" stroke-linejoin="round"/>
<path d="M55.091 45.5454H16.9092" stroke="#00999A" stroke-width="2" stroke-linejoin="round"/>
<path d="M36 16.9092V58.2728" stroke="#00999A" stroke-width="2" stroke-linejoin="round"/>
</svg>
