<svg width="90" height="81" viewBox="0 0 90 81" fill="none" xmlns="http://www.w3.org/2000/svg">
<g id="Group">
<path id="Vector" d="M19.3416 40.5374C19.705 37.1704 20.5659 33.9756 21.8285 30.9722" stroke="#00999A" stroke-width="4" stroke-linejoin="round"/>
<path id="Vector_2" d="M20.47 53.9096C19.7621 51.4609 19.3221 48.8975 19.1882 46.2766" stroke="#00999A" stroke-width="4" stroke-linejoin="round"/>
<path id="Vector_3" d="M24.8698 25.3097C31.0298 16.0314 41.5898 9.90967 53.5654 9.90967C72.5811 9.90967 88.0002 25.3288 88.0002 44.3445C88.0002 63.3601 72.5811 78.7792 53.5654 78.7792C40.0402 78.7792 28.3515 70.9931 22.708 59.6488" stroke="#00999A" stroke-width="4" stroke-linejoin="round"/>
<path id="Vector_4" d="M53.5653 50.1028C56.7349 50.1028 59.3044 47.5333 59.3044 44.3636C59.3044 41.194 56.7349 38.6245 53.5653 38.6245C50.3957 38.6245 47.8262 41.194 47.8262 44.3636C47.8262 47.5333 50.3957 50.1028 53.5653 50.1028Z" stroke="#00999A" stroke-width="4" stroke-linejoin="round"/>
<path id="Vector_5" d="M47.8262 2.27661H59.3044" stroke="#00999A" stroke-width="4" stroke-linejoin="round"/>
<path id="Vector_6" d="M53.5652 9.92879V2.27661" stroke="#00999A" stroke-width="4" stroke-linejoin="round"/>
<path id="Vector_7" d="M80.3478 11.8418L74.6086 17.5809" stroke="#00999A" stroke-width="4" stroke-linejoin="round"/>
<path id="Vector_8" d="M76.5217 8.01562L84.1739 15.6678" stroke="#00999A" stroke-width="4" stroke-linejoin="round"/>
<path id="Vector_9" d="M57.3914 40.5375L72.6957 25.2332" stroke="#00999A" stroke-width="4" stroke-linejoin="round"/>
<path id="Vector_10" d="M49.7391 48.1897L44 53.9288" stroke="#00999A" stroke-width="4" stroke-linejoin="round"/>
<path id="Vector_11" d="M11.4783 25.2332H40.1739" stroke="#00999A" stroke-width="4" stroke-linejoin="round"/>
<path id="Vector_12" d="M0 40.5376H28.6957" stroke="#00999A" stroke-width="4" stroke-linejoin="round"/>
<path id="Vector_13" d="M7.6521 53.9287H34.4347" stroke="#00999A" stroke-width="4" stroke-linejoin="round"/>
</g>
</svg>
