<svg width="92" height="86" viewBox="0 0 92 86" fill="none" xmlns="http://www.w3.org/2000/svg">
<path d="M30.5262 72.8294C31.2739 72.0818 32.0609 70.8619 34.4612 70.8619H63.4226C65.6065 70.8619 77.6279 58.8013 79.1625 57.0895C80.6381 55.4369 87.1899 45.5994 88.9999 41.3497C87.8588 39.815 84.7698 38.5362 81.13 39.3822C77.6475 40.1888 75.6014 42.6875 73.26 47.2521L64.249 51.9347" stroke="#00999A" stroke-width="4" stroke-miterlimit="10"/>
<path d="M41.7801 59.0571H59.4874C67.3574 59.0571 67.3574 49.2196 59.4874 49.2196H47.6825C46.0495 49.2196 42.9606 45.2847 40.3635 45.2847H30.526C27.8699 45.2847 24.5646 47.4489 22.6561 49.2196C19.7049 52.1709 14.5107 57.0896 14.5107 57.0896" stroke="#00999A" stroke-width="4" stroke-miterlimit="10"/>
<path d="M10.8743 53.1467L3 61.021L24.6474 82.6684L32.5217 74.7941L10.8743 53.1467Z" stroke="#00999A" stroke-width="4" stroke-miterlimit="10"/>
<path d="M55.5528 17.7399C59.0943 17.7399 61.4553 14.7296 61.4553 10.9914V8.74848C61.4553 5.02993 59.0943 2 55.5528 2C52.0114 2 49.6504 5.01025 49.6504 8.74848V10.9914C49.6504 14.71 52.0114 17.7399 55.5528 17.7399Z" stroke="#00999A" stroke-width="4" stroke-miterlimit="10"/>
<path d="M75.2275 21.6749C78.769 21.6749 81.13 18.6647 81.13 14.9265V12.6835C81.13 8.96499 78.769 5.93506 75.2275 5.93506C71.6861 5.93506 69.3251 8.94531 69.3251 12.6835V14.9265C69.3251 18.645 71.6861 21.6749 75.2275 21.6749Z" stroke="#00999A" stroke-width="4" stroke-miterlimit="10"/>
<path d="M35.878 21.6749C39.4195 21.6749 41.7805 18.6647 41.7805 14.9265V12.6835C41.7805 8.96499 39.4195 5.93506 35.878 5.93506C32.3366 5.93506 29.9756 8.94531 29.9756 12.6835V14.9265C29.9756 18.645 32.3366 21.6749 35.878 21.6749Z" stroke="#00999A" stroke-width="4" stroke-miterlimit="10"/>
<path d="M67.3574 43.3174V29.545C67.3574 24.6657 59.6448 23.6426 55.5525 23.6426C51.4601 23.6426 43.7476 24.6657 43.7476 29.545V41.3499" stroke="#00999A" stroke-width="4" stroke-miterlimit="10"/>
<path d="M85.0647 35.4471V33.4796C85.0647 28.6002 77.3521 27.5771 73.2598 27.5771C71.6267 27.5771 69.4232 27.7345 67.3573 28.2461" stroke="#00999A" stroke-width="4" stroke-miterlimit="10"/>
<path d="M26.0405 41.3495V33.4796C26.0405 28.6002 33.7531 27.5771 37.8454 27.5771C39.4785 27.5771 41.682 27.7345 43.7479 28.2461" stroke="#00999A" stroke-width="4" stroke-miterlimit="10"/>
</svg>
