<svg width="48" height="31" viewBox="0 0 48 31" fill="none" xmlns="http://www.w3.org/2000/svg">
<path d="M17 22H34" stroke="white" stroke-width="2" stroke-miterlimit="10"/>
<path d="M3 22H9" stroke="white" stroke-width="2" stroke-miterlimit="10"/>
<path d="M42 22H47V17.05C47 14.71 44.29 11.82 36 11.03C30.89 7.28 26.78 6.00999 23 6.00999H18C13.83 6.00999 8 10.01 4 10.01H0" stroke="white" stroke-width="2" stroke-miterlimit="10"/>
<path d="M33.09 12.2L31.09 13H17" stroke="white" stroke-width="2" stroke-miterlimit="10"/>
<path d="M37.98 26C40.1781 26 41.96 24.2181 41.96 22.02C41.96 19.8219 40.1781 18.04 37.98 18.04C35.7819 18.04 34 19.8219 34 22.02C34 24.2181 35.7819 26 37.98 26Z" stroke="white" stroke-width="2" stroke-miterlimit="10"/>
<path d="M12.98 26C15.1781 26 16.96 24.2181 16.96 22.02C16.96 19.8219 15.1781 18.04 12.98 18.04C10.7819 18.04 9 19.8219 9 22.02C9 24.2181 10.7819 26 12.98 26Z" stroke="white" stroke-width="2" stroke-miterlimit="10"/>
<path d="M35 30H25" stroke="white" stroke-width="2" stroke-miterlimit="10"/>
<path d="M23 30H19" stroke="white" stroke-width="2" stroke-miterlimit="10"/>
<path d="M18 1H8" stroke="white" stroke-width="2" stroke-miterlimit="10"/>
<path d="M6 1H2" stroke="white" stroke-width="2" stroke-miterlimit="10"/>
</svg>
