<svg width="46" height="39" viewBox="0 0 46 39" fill="none" xmlns="http://www.w3.org/2000/svg">
<path d="M31 1C33.21 1 35 2.61001 35 4.60001V6.39999C35 8.38999 33.21 10 31 10C28.79 10 27 8.38999 27 6.39999V4.60001C27 2.61001 28.79 1 31 1Z" stroke="#1B313B" stroke-width="2" stroke-linecap="round" stroke-linejoin="round"/>
<path d="M21.61 11.89L20 6H3L6 17H14" stroke="#1B313B" stroke-width="2" stroke-linecap="round" stroke-linejoin="round"/>
<path d="M37.88 15C37.51 13.25 36.88 10 33.22 10H30.55C29.2 10 27.91 10.5 26.93 11.38L23.5 14.78C23.5 14.78 20.26 15.44 19.02 15.67C17.75 15.91 17 16.72 17 17.99C17 19.26 17.99 19.99 19.46 19.99H24.5L28.7 17.83" stroke="#1B313B" stroke-width="2" stroke-linecap="round" stroke-linejoin="round"/>
<path d="M27.86 18.28L29 23.01C29 23.01 25.68 24.17 24.47 24.62C23.27 25.07 22.37 25.82 21.93 27.18L17.99 37.01" stroke="#1B313B" stroke-width="2" stroke-linecap="round" stroke-linejoin="round"/>
<path d="M41.18 30H32.22C31.59 30 31.12 29.42 31.24 28.8L33.84 15.8C33.93 15.33 34.34 15 34.82 15H43.78C44.41 15 44.88 15.58 44.76 16.2L42.16 29.2C42.07 29.67 41.66 30 41.18 30Z" stroke="#1B313B" stroke-width="2" stroke-linecap="round" stroke-linejoin="round"/>
<path d="M35 30V36" stroke="#1B313B" stroke-width="2" stroke-linecap="round" stroke-linejoin="round"/>
<path d="M42 38V37L35 36L28 37V38" stroke="#1B313B" stroke-width="2" stroke-linecap="round" stroke-linejoin="round"/>
<path d="M35 36V38" stroke="#1B313B" stroke-width="2" stroke-linecap="round" stroke-linejoin="round"/>
<path d="M19.46 20H1" stroke="#1B313B" stroke-width="2" stroke-linecap="round" stroke-linejoin="round"/>
<path d="M6 20V37" stroke="#1B313B" stroke-width="2" stroke-linecap="round" stroke-linejoin="round"/>
<path d="M23 37L26.74 30.09C27.05 29.49 27.64 29 28.26 29H31.22" stroke="#1B313B" stroke-width="2" stroke-linecap="round" stroke-linejoin="round"/>
</svg>
