<svg width="48" height="44" fill="none" xmlns="http://www.w3.org/2000/svg"><path d="M7 11h4l4 6h3M7 22h15M7 11c0 1.66-1.34 3-3 3s-3-1.34-3-3 1.34-3 3-3 3 1.34 3 3zm0 11c0 1.66-1.34 3-3 3s-3-1.34-3-3 1.34-3 3-3 3 1.34 3 3zm8-16l4 6h5" stroke="#00999A" stroke-width="2" stroke-miterlimit="10"/><path d="M16 4c0 1.66-1.34 3-3 3s-3-1.34-3-3 1.34-3 3-3 3 1.34 3 3zM7 33c0-1.66-1.34-3-3-3s-3 1.34-3 3 1.34 3 3 3 3-1.34 3-3zm8 5l4-6h5" stroke="#00999A" stroke-width="2" stroke-miterlimit="10"/><path d="M16 40c0-1.66-1.34-3-3-3s-3 1.34-3 3 1.34 3 3 3 3-1.34 3-3zm8-18h-2M7 33h4l4-6h19v2.89l11.46-7.77L34 13.89V17H24m6 5h2m-6 0h2m-2-10h2m-2 20h2m-6-15h-2" stroke="#00999A" stroke-width="2" stroke-miterlimit="10"/></svg>