<svg width="46" height="44" fill="none" xmlns="http://www.w3.org/2000/svg"><path d="M13 22.05H6m34 0h-7M1 37.07c0-2.58 2-5.02 5-5.02V15.29c-3 0-5 2.19-5 4.76v17.02zm44 0c0-2.58-2-5.02-5-5.02V15.29c3 0 5 2.19 5 4.76v17.02z" stroke="#00999A" stroke-width="2" stroke-linejoin="round"/><path d="M45 37.06c0 2.7-2.25 4.99-5.02 4.99H6.03c-2.77 0-5.02-2.29-5.02-4.99" stroke="#00999A" stroke-width="2" stroke-linejoin="round"/><path d="M22.99 8.05H23c2.2 0 3.99 1.67 3.99 3.99 0 2.32-1.78 4.01-3.98 4.01h-.04c-2.2 0-3.99-1.68-3.98-4.01 0-2.32 1.79-3.99 3.99-3.99h.01z" stroke="#00999A" stroke-width="2" stroke-miterlimit="10"/><path d="M23 1c6.04 0 10.93 4.89 10.93 10.93 0 2.61-.38 4.42-1.87 6.79C30.58 21.09 23 32.1 23 32.1s-7.58-11.01-9.06-13.38c-1.48-2.37-1.87-4.18-1.87-6.79C12.07 5.89 16.96 1 23 1z" stroke="#00999A" stroke-width="2" stroke-miterlimit="10"/></svg>