<svg width="46" height="45" viewBox="0 0 46 45" fill="none" xmlns="http://www.w3.org/2000/svg">
<path d="M45 13V10C45 9.3 42.3 8 40 8C37.7 8 35 9.3 35 10V13" stroke="white" stroke-width="2" stroke-linejoin="round"/>
<path d="M37 4C37 2.48 38.45 1 40 1C41.55 1 43 2.48 43 4V5C43 6.52 41.55 8 40 8C38.45 8 37 6.52 37 5V4Z" stroke="white" stroke-width="2" stroke-linejoin="round"/>
<path d="M45 45V42C45 41.3 42.3 40 40 40C37.7 40 35 41.3 35 42V45" stroke="white" stroke-width="2" stroke-linejoin="round"/>
<path d="M37 36C37 34.48 38.45 33 40 33C41.55 33 43 34.48 43 36V37C43 38.52 41.55 40 40 40C38.45 40 37 38.52 37 37V36Z" stroke="white" stroke-width="2" stroke-linejoin="round"/>
<path d="M23.0501 37C30.2201 37 36.0201 31.19 36.0001 24.02C35.9801 16.85 30.1601 11.04 22.9901 11.04C15.8201 11.04 10.0201 16.85 10.0401 24.02C10.0601 31.19 15.8801 37 23.0501 37Z" stroke="white" stroke-width="2" stroke-linejoin="round"/>
<path d="M42 30.32C42.65 28.34 43 26.22 43 24.02C43 20.37 42 16.95 40.28 14" stroke="white" stroke-width="2" stroke-linejoin="round"/>
<path d="M1 13V10C1 9.3 3.7 8 6 8C8.3 8 11 9.3 11 10V13" stroke="white" stroke-width="2" stroke-linejoin="round"/>
<path d="M9 4C9 2.48 7.55 1 6 1C4.45 1 3 2.48 3 4V5C3 6.52 4.45 8 6 8C7.55 8 9 6.52 9 5V4Z" stroke="white" stroke-width="2" stroke-linejoin="round"/>
<path d="M1 45V42C1 41.3 3.7 40 6 40C8.3 40 11 41.3 11 42V45" stroke="white" stroke-width="2" stroke-linejoin="round"/>
<path d="M9 36C9 34.48 7.55 33 6 33C4.45 33 3 34.48 3 36V37C3 38.52 4.45 40 6 40C7.55 40 9 38.52 9 37V36Z" stroke="white" stroke-width="2" stroke-linejoin="round"/>
<path d="M3.95996 30.32C3.30996 28.34 2.95996 26.22 2.95996 24.02C2.95996 20.37 3.95995 16.95 5.67995 14" stroke="white" stroke-width="2" stroke-linejoin="round"/>
<path d="M13.96 41.9C16.65 43.25 19.68 44 22.89 44H23.06C26.27 44 29.31 43.24 31.99 41.89" stroke="white" stroke-width="2" stroke-linejoin="round"/>
<path d="M12.97 6.71C15.92 5 19.35 4 23 4H22.97C26.62 4 30.05 4.99 33 6.7" stroke="white" stroke-width="2" stroke-linejoin="round"/>
<path d="M22.9799 11C19.0999 11 15.96 16.82 15.96 24C15.96 31.18 19.0999 37 22.9799 37C26.86 37 30 31.18 30 24C30 16.82 26.86 11 22.9799 11Z" stroke="white" stroke-width="2" stroke-linejoin="round"/>
<path d="M35 19H11" stroke="white" stroke-width="2" stroke-linejoin="round"/>
<path d="M35 29H11" stroke="white" stroke-width="2" stroke-linejoin="round"/>
<path d="M23 11V37" stroke="white" stroke-width="2" stroke-linejoin="round"/>
</svg>
