<svg width="46" height="45" fill="none" xmlns="http://www.w3.org/2000/svg"><path d="M45 13v-3c0-.7-2.7-2-5-2s-5 1.3-5 2v3m2-9c0-1.52 1.45-3 3-3s3 1.48 3 3v1c0 1.52-1.45 3-3 3s-3-1.48-3-3V4zm8 41v-3c0-.7-2.7-2-5-2s-5 1.3-5 2v3m2-9c0-1.52 1.45-3 3-3s3 1.48 3 3v1c0 1.52-1.45 3-3 3s-3-1.48-3-3v-1zm-13.95 1c7.17 0 12.97-5.81 12.95-12.98-.02-7.17-5.84-12.98-13.01-12.98s-12.97 5.81-12.95 12.98C10.06 31.19 15.88 37 23.05 37zM42 30.32c.65-1.98 1-4.1 1-6.3 0-3.65-1-7.07-2.72-10.02M1 13v-3c0-.7 2.7-2 5-2s5 1.3 5 2v3M9 4c0-1.52-1.45-3-3-3S3 2.48 3 4v1c0 1.52 1.45 3 3 3s3-1.48 3-3V4zM1 45v-3c0-.7 2.7-2 5-2s5 1.3 5 2v3m-2-9c0-1.52-1.45-3-3-3s-3 1.48-3 3v1c0 1.52 1.45 3 3 3s3-1.48 3-3v-1zm-5.04-5.68c-.65-1.98-1-4.1-1-6.3 0-3.65 1-7.07 2.72-10.02m8.28 27.9c2.69 1.35 5.72 2.1 8.93 2.1h.17c3.21 0 6.25-.76 8.93-2.11M12.97 6.71C15.92 5 19.35 4 23 4h-.03c3.65 0 7.08.99 10.03 2.7" stroke="#fff" stroke-width="2" stroke-linejoin="round"/><path d="M22.98 11c-3.88 0-7.02 5.82-7.02 13s3.14 13 7.02 13C26.86 37 30 31.18 30 24s-3.14-13-7.02-13zM35 19H11m24 10H11m12-18v26" stroke="#fff" stroke-width="2" stroke-linejoin="round"/></svg>