<svg width="48" height="46" viewBox="0 0 48 46" fill="none" xmlns="http://www.w3.org/2000/svg">
<path d="M18 16C17.03 21.32 11 23.49 11 29C11 32.73 14.27 36 18 36C21.73 36 25 32.73 25 29C25 23.49 18.98 21.32 18 16Z" stroke="#00999A" stroke-width="2" stroke-linejoin="round"/>
<path d="M35 18C34.3 21.04 30 23.02 30 27C30 29.69 32.31 32 35 32C37.69 32 40 29.69 40 27C40 23.02 35.7 21.04 35 18Z" stroke="#00999A" stroke-width="2" stroke-linejoin="round"/>
<path d="M27 7C26.45 9.01 23 12.1 23 15C23 16.96 24.87 19 27 19C29.13 19 31 16.96 31 15C31 12.1 27.55 9.01 27 7Z" stroke="#00999A" stroke-width="2" stroke-linejoin="round"/>
<path d="M30.24 2.63C41.6 5.25 48.69 16.59 46.06 27.96C45.95 28.44 45.82 28.91 45.67 29.38" stroke="#00999A" stroke-width="2" stroke-miterlimit="10"/>
<path d="M20.7401 2.63C13.1301 4.39 6.79011 10.33 4.92011 18.46C4.05011 22.21 4.25011 25.95 5.30011 29.38" stroke="#00999A" stroke-width="2" stroke-miterlimit="10"/>
<path d="M10.05 37.61C12.82 40.59 16.48 42.8 20.74 43.78C28.35 45.54 35.95 42.93 40.93 37.6" stroke="#00999A" stroke-width="2" stroke-miterlimit="10"/>
<path d="M7.82 23.93L5.3 29.38L1 25.18" stroke="#00999A" stroke-width="2" stroke-miterlimit="10"/>
<path d="M34.95 38.15L40.93 37.6L39.45 43.42" stroke="#00999A" stroke-width="2" stroke-miterlimit="10"/>
<path d="M33.7 7.53L30.24 2.63L36.02 1" stroke="#00999A" stroke-width="2" stroke-miterlimit="10"/>
</svg>
