<svg width="51" height="51" fill="none" xmlns="http://www.w3.org/2000/svg"><path d="M30.437 45.804C41.7 43.03 48.578 31.652 45.804 20.39 43.03 9.13 31.652 2.25 20.39 5.023 9.13 7.798 2.25 19.176 5.023 30.437 7.798 41.7 19.176 48.578 30.437 45.804zm-5.022.607c-5.04 0-9.21-7.82-9.9-18m9.9-24v42" stroke="#1B313B" stroke-width="2" stroke-linejoin="round"/><path d="M30.665 15.101c-1.68.21-3.44.31-5.25.31-6.41 0-12.15-1.37-16-3.52m22 23.93c-1.9-.27-3.92-.41-6-.41-6.41 0-12.15 1.37-16 3.52m6-10.52a3 3 0 100-6 3 3 0 000 6zm-3-3h-8m42 0h-28" stroke="#1B313B" stroke-width="2" stroke-linejoin="round"/><path d="M33.415 17.411a3 3 0 100-6 3 3 0 000 6zm-17.9 5c.69-10.18 4.86-18 9.9-18m9 35a3 3 0 100-6 3 3 0 000 6zm-1.55 0c-1.83 4.3-4.49 7-7.45 7m9.25-29c.48 2.47.75 5.17.75 8s-.27 5.53-.75 8m-9.25-29c2.96 0 5.62 2.7 7.45 7m8.55 27.52c-1.2-.67-2.57-1.26-4.1-1.76m4.1-25.28c-1.44.8-3.14 1.5-5.04 2.05" stroke="#1B313B" stroke-width="2" stroke-linejoin="round"/></svg>