<svg width="46" height="39" fill="none" xmlns="http://www.w3.org/2000/svg"><path d="M31 1c2.21 0 4 1.61 4 3.6v1.8c0 1.99-1.79 3.6-4 3.6s-4-1.61-4-3.6V4.6C27 2.61 28.79 1 31 1zm-9.39 10.89L20 6H3l3 11h8" stroke="#1B313B" stroke-width="2" stroke-linecap="round" stroke-linejoin="round"/><path d="M37.88 15c-.37-1.75-1-5-4.66-5h-2.67c-1.35 0-2.64.5-3.62 1.38l-3.43 3.4s-3.24.66-4.48.89c-1.27.24-2.02 1.05-2.02 2.32 0 1.27.99 2 2.46 2h5.04l4.2-2.16" stroke="#1B313B" stroke-width="2" stroke-linecap="round" stroke-linejoin="round"/><path d="M27.86 18.28L29 23.01s-3.32 1.16-4.53 1.61c-1.2.45-2.1 1.2-2.54 2.56l-3.94 9.83M41.18 30h-8.96c-.63 0-1.1-.58-.98-1.2l2.6-13c.09-.47.5-.8.98-.8h8.96c.63 0 1.1.58.98 1.2l-2.6 13c-.09.47-.5.8-.98.8zM35 30v6m7 2v-1l-7-1-7 1v1m7-2v2M19.46 20H1m5 0v17" stroke="#1B313B" stroke-width="2" stroke-linecap="round" stroke-linejoin="round"/><path d="M23 37l3.74-6.91c.31-.6.9-1.09 1.52-1.09h2.96" stroke="#1B313B" stroke-width="2" stroke-linecap="round" stroke-linejoin="round"/></svg>