<svg width="48" height="46" fill="none" xmlns="http://www.w3.org/2000/svg"><path d="M18 16c-.97 5.32-7 7.49-7 13 0 3.73 3.27 7 7 7s7-3.27 7-7c0-5.51-6.02-7.68-7-13zm17 2c-.7 3.04-5 5.02-5 9 0 2.69 2.31 5 5 5s5-2.31 5-5c0-3.98-4.3-5.96-5-9zM27 7c-.55 2.01-4 5.1-4 8 0 1.96 1.87 4 4 4s4-2.04 4-4c0-2.9-3.45-5.99-4-8z" stroke="#00999A" stroke-width="2" stroke-linejoin="round"/><path d="M30.24 2.63C41.6 5.25 48.69 16.59 46.06 27.96c-.11.48-.24.95-.39 1.42M20.74 2.63c-7.61 1.76-13.95 7.7-15.82 15.83-.87 3.75-.67 7.49.38 10.92m4.75 8.23a20.96 20.96 0 0010.69 6.17c7.61 1.76 15.21-.85 20.19-6.18" stroke="#00999A" stroke-width="2" stroke-miterlimit="10"/><path d="M7.82 23.93L5.3 29.38 1 25.18m33.95 12.97l5.98-.55-1.48 5.82M33.7 7.53l-3.46-4.9L36.02 1" stroke="#00999A" stroke-width="2" stroke-miterlimit="10"/></svg>