<svg width="48" height="44" viewBox="0 0 48 44" fill="none" xmlns="http://www.w3.org/2000/svg">
<path d="M7 11H11L15 17H18" stroke="#00999A" stroke-width="2" stroke-miterlimit="10"/>
<path d="M7 22H22" stroke="#00999A" stroke-width="2" stroke-miterlimit="10"/>
<path d="M7 11C7 12.66 5.66 14 4 14C2.34 14 1 12.66 1 11C1 9.34 2.34 8 4 8C5.66 8 7 9.34 7 11Z" stroke="#00999A" stroke-width="2" stroke-miterlimit="10"/>
<path d="M7 22C7 23.66 5.66 25 4 25C2.34 25 1 23.66 1 22C1 20.34 2.34 19 4 19C5.66 19 7 20.34 7 22Z" stroke="#00999A" stroke-width="2" stroke-miterlimit="10"/>
<path d="M15 6L19 12H24" stroke="#00999A" stroke-width="2" stroke-miterlimit="10"/>
<path d="M16 4C16 5.66 14.66 7 13 7C11.34 7 10 5.66 10 4C10 2.34 11.34 1 13 1C14.66 1 16 2.34 16 4Z" stroke="#00999A" stroke-width="2" stroke-miterlimit="10"/>
<path d="M7 33C7 31.34 5.66 30 4 30C2.34 30 1 31.34 1 33C1 34.66 2.34 36 4 36C5.66 36 7 34.66 7 33Z" stroke="#00999A" stroke-width="2" stroke-miterlimit="10"/>
<path d="M15 38L19 32H24" stroke="#00999A" stroke-width="2" stroke-miterlimit="10"/>
<path d="M16 40C16 38.34 14.66 37 13 37C11.34 37 10 38.34 10 40C10 41.66 11.34 43 13 43C14.66 43 16 41.66 16 40Z" stroke="#00999A" stroke-width="2" stroke-miterlimit="10"/>
<path d="M24 22H22" stroke="#00999A" stroke-width="2" stroke-miterlimit="10"/>
<path d="M7 33H11L15 27H34V29.89L45.46 22.12L34 13.89V17H24" stroke="#00999A" stroke-width="2" stroke-miterlimit="10"/>
<path d="M30 22H32" stroke="#00999A" stroke-width="2" stroke-miterlimit="10"/>
<path d="M26 22H28" stroke="#00999A" stroke-width="2" stroke-miterlimit="10"/>
<path d="M26 12H28" stroke="#00999A" stroke-width="2" stroke-miterlimit="10"/>
<path d="M26 32H28" stroke="#00999A" stroke-width="2" stroke-miterlimit="10"/>
<path d="M22 17H20" stroke="#00999A" stroke-width="2" stroke-miterlimit="10"/>
</svg>
