<svg width="48" height="45" fill="none" xmlns="http://www.w3.org/2000/svg"><path d="M13 25H1v9h12v-9zm-5.55 9L4.08 44" stroke="#fff" stroke-width="2" stroke-linecap="round" stroke-linejoin="round"/><path d="M15.08 9a4 4 0 100-8 4 4 0 000 8z" stroke="#fff" stroke-width="2" stroke-miterlimit="10"/><path d="M16.08 19.04L22 22.31M8.08 44l3.88-10M24 38l-1.04-9L16 25V15c0-1.88-1.27-2.13-2.96-3-1.62-.83-3.21-.97-4.98 0-1.05.58-2.02 1.27-2.02 1.27C5.36 13.84 5 14.51 5 15.4v9.59m8.01 4.2l5.97 2.3.97 6.5M9 16.55v7.83c0 .2 0 .41.02.61" stroke="#fff" stroke-width="2" stroke-linecap="round" stroke-linejoin="round"/><path d="M23.54 34.03c5.26-3.31 9.19-6.81 11.44-12.64l-4.85-1.77L44.69 9l1.7 16.97s-3.01-.94-4.15-1.41c-3.42 8.32-15.9 19.44-30 19.33m-2.45-4.3c3.33-.74 6.7-1.87 9.89-3.42M1 41c1.4 0 2.83-.33 4.29-.66" stroke="#fff" stroke-width="2" stroke-linecap="round" stroke-linejoin="round"/></svg>