<svg width="44" height="48" fill="none" xmlns="http://www.w3.org/2000/svg"><path d="M5 33.01c-2.16 0-4-2.05-4-4v-9c0-3.3 5.53-5 9-5 3.47 0 10 1.7 10 5v12" stroke="#fff" stroke-width="2" stroke-linecap="round" stroke-linejoin="round"/><path d="M10 12.01c-2.33 0-4-1.63-4-4v-2c0-2.37 1.67-4 4-4s4 1.63 4 4v2c0 2.37-1.67 4-4 4z" stroke="#fff" stroke-width="2" stroke-linejoin="round"/><path d="M5 47.01v-25m11 0v10m0 9v6m-6-15v15" stroke="#fff" stroke-width="2" stroke-linecap="round" stroke-linejoin="round"/><path d="M14.01 41h11v-9h-11v9z" stroke="#fff" stroke-width="2" stroke-linejoin="round"/><path d="M16.88 8c2.42-4.18 6.94-7 12.13-7 7.73 0 14 6.27 14 14s-6.27 14-14 14c-2.13 0-4.15-.48-5.95-1.33" stroke="#fff" stroke-width="2" stroke-miterlimit="10"/><path d="M26 16.01v1c0 .99.92 2 2.02 2H30c1.1 0 2-1.01 2-2v-.3c0-.77-.54-1.46-1.36-1.71l-3.27-.98c-.82-.25-1.37-.93-1.37-1.71v-.3c0-.99.9-2 2-2h2c1.1 0 2 1.01 2 2v1m-3-3v-3m0 12v3" stroke="#fff" stroke-width="2" stroke-miterlimit="10"/></svg>