<svg width="72" height="79" fill="none" xmlns="http://www.w3.org/2000/svg"><path d="M7.665 54.337c-3.6 0-6.665-3.416-6.665-6.665V32.676c0-5.499 9.214-8.332 14.996-8.332s16.663 2.833 16.663 8.332V52.67" stroke="#00999A" stroke-width="2" stroke-linecap="round" stroke-linejoin="round"/><path d="M15.996 19.346c-3.882 0-6.665-2.716-6.665-6.665V9.348c0-3.95 2.783-6.665 6.665-6.665s6.665 2.716 6.665 6.665v3.332c0 3.95-2.783 6.666-6.665 6.666z" stroke="#00999A" stroke-width="2" stroke-linejoin="round"/><path d="M7.665 77.665V36.008m18.329 0v16.663m0 14.997v9.997m-9.998-24.994v24.994" stroke="#00999A" stroke-width="2" stroke-linecap="round" stroke-linejoin="round"/><path d="M22.678 67.65h18.329V52.655h-18.33v14.997z" stroke="#00999A" stroke-width="2" stroke-linejoin="round"/><path d="M27.46 12.664C31.492 5.699 39.024 1 47.672 1 60.552 1 71 11.447 71 24.328c0 12.88-10.448 23.328-23.328 23.328-3.55 0-6.915-.8-9.914-2.217" stroke="#00999A" stroke-width="2" stroke-miterlimit="10"/><path d="M42.656 26.01v1.667c0 1.65 1.533 3.333 3.366 3.333h3.3c1.832 0 3.332-1.683 3.332-3.333v-.5c0-1.283-.9-2.433-2.266-2.85l-5.449-1.632c-1.366-.417-2.283-1.55-2.283-2.85v-.5c0-1.649 1.5-3.332 3.333-3.332h3.332c1.833 0 3.333 1.683 3.333 3.333v1.666m-4.999-4.999v-4.999m0 19.996v4.998" stroke="#00999A" stroke-width="2" stroke-miterlimit="10"/></svg>