<svg width="73" height="68" viewBox="0 0 73 68" fill="none" xmlns="http://www.w3.org/2000/svg">
<path d="M10.4463 16.7141H16.7441L23.0419 26.1427H27.7652" stroke="#00999A" stroke-width="2" stroke-miterlimit="10"/>
<path d="M10.4463 34H34.063" stroke="#00999A" stroke-width="2" stroke-miterlimit="10"/>
<path d="M10.4467 16.7143C10.4467 19.3229 8.33693 21.4286 5.72335 21.4286C3.10976 21.4286 1 19.3229 1 16.7143C1 14.1057 3.10976 12 5.72335 12C8.33693 12 10.4467 14.1057 10.4467 16.7143Z" stroke="#00999A" stroke-width="2" stroke-miterlimit="10"/>
<path d="M10.4467 33.9999C10.4467 36.6085 8.33693 38.7142 5.72335 38.7142C3.10976 38.7142 1 36.6085 1 33.9999C1 31.3914 3.10976 29.2856 5.72335 29.2856C8.33693 29.2856 10.4467 31.3914 10.4467 33.9999Z" stroke="#00999A" stroke-width="2" stroke-miterlimit="10"/>
<path d="M23.042 8.85718L29.3398 18.2857H37.212" stroke="#00999A" stroke-width="2" stroke-miterlimit="10"/>
<path d="M24.6166 5.71429C24.6166 8.32286 22.5069 10.4286 19.8933 10.4286C17.2797 10.4286 15.1699 8.32286 15.1699 5.71429C15.1699 3.10571 17.2797 1 19.8933 1C22.5069 1 24.6166 3.10571 24.6166 5.71429Z" stroke="#00999A" stroke-width="2" stroke-miterlimit="10"/>
<path d="M10.4467 51.2856C10.4467 48.677 8.33693 46.5713 5.72335 46.5713C3.10976 46.5713 1 48.677 1 51.2856C1 53.8941 3.10976 55.9999 5.72335 55.9999C8.33693 55.9999 10.4467 53.8941 10.4467 51.2856Z" stroke="#00999A" stroke-width="2" stroke-miterlimit="10"/>
<path d="M23.042 59.1429L29.3398 49.7144H37.212" stroke="#00999A" stroke-width="2" stroke-miterlimit="10"/>
<path d="M24.6166 62.2858C24.6166 59.6772 22.5069 57.5715 19.8933 57.5715C17.2797 57.5715 15.1699 59.6772 15.1699 62.2858C15.1699 64.8944 17.2797 67.0001 19.8933 67.0001C22.5069 67.0001 24.6166 64.8944 24.6166 62.2858Z" stroke="#00999A" stroke-width="2" stroke-miterlimit="10"/>
<path d="M37.2124 34H34.0635" stroke="#00999A" stroke-width="2" stroke-miterlimit="10"/>
<path d="M10.4463 51.2856H16.7441L23.0419 41.857H52.9564V46.3985L70.9996 34.1885L52.9564 21.2556V26.1428H37.2119" stroke="#00999A" stroke-width="2" stroke-miterlimit="10"/>
<path d="M46.6592 34H49.8081" stroke="#00999A" stroke-width="2" stroke-miterlimit="10"/>
<path d="M40.3613 34H43.5102" stroke="#00999A" stroke-width="2" stroke-miterlimit="10"/>
<path d="M40.3613 18.2856H43.5102" stroke="#00999A" stroke-width="2" stroke-miterlimit="10"/>
<path d="M40.3613 49.7144H43.5102" stroke="#00999A" stroke-width="2" stroke-miterlimit="10"/>
<path d="M34.063 26.1428H30.9141" stroke="#00999A" stroke-width="2" stroke-miterlimit="10"/>
</svg>
