<svg width="73" height="68" fill="none" xmlns="http://www.w3.org/2000/svg"><path d="M10.446 16.714h6.298l6.298 9.429h4.723M10.446 34h23.617" stroke="#00999A" stroke-width="2" stroke-miterlimit="10"/><path d="M10.447 16.714a4.713 4.713 0 01-4.724 4.715A4.712 4.712 0 011 16.714 4.712 4.712 0 015.723 12a4.713 4.713 0 014.724 4.714zm0 17.286a4.713 4.713 0 01-4.724 4.714A4.712 4.712 0 011 34a4.713 4.713 0 014.723-4.714A4.713 4.713 0 0110.447 34zM23.042 8.857l6.298 9.429h7.872" stroke="#00999A" stroke-width="2" stroke-miterlimit="10"/><path d="M24.617 5.714a4.712 4.712 0 01-4.724 4.715 4.713 4.713 0 01-4.723-4.715A4.713 4.713 0 0119.893 1a4.712 4.712 0 014.724 4.714zm-14.17 45.572a4.713 4.713 0 00-4.724-4.715A4.712 4.712 0 001 51.286 4.713 4.713 0 005.723 56a4.713 4.713 0 004.724-4.714zm12.595 7.857l6.298-9.429h7.872" stroke="#00999A" stroke-width="2" stroke-miterlimit="10"/><path d="M24.617 62.286a4.712 4.712 0 00-4.724-4.715 4.713 4.713 0 00-4.723 4.715A4.713 4.713 0 0019.893 67a4.712 4.712 0 004.724-4.714zM37.212 34h-3.149M10.446 51.286h6.298l6.298-9.429h29.914v4.541L71 34.188 52.956 21.256v4.887H37.212M46.66 34h3.148m-9.447 0h3.15m-3.15-15.714h3.15m-3.15 31.428h3.15m-9.448-23.571h-3.149" stroke="#00999A" stroke-width="2" stroke-miterlimit="10"/></svg>