<svg width="71" height="45" fill="none" xmlns="http://www.w3.org/2000/svg"><path d="M25.32 32.138h25.319m-46.171 0h8.936m49.149 0H70v-7.34c0-3.47-4.036-7.754-16.383-8.926-7.61-5.56-13.732-7.443-19.362-7.443h-7.447c-6.21 0-14.893 5.93-20.85 5.93H0" stroke="#00999A" stroke-width="2" stroke-miterlimit="10"/><path d="M49.283 17.607l-2.979 1.186H25.32M56.566 38.07c3.274 0 5.928-2.643 5.928-5.902 0-3.26-2.654-5.902-5.928-5.902-3.273 0-5.927 2.643-5.927 5.902 0 3.259 2.654 5.901 5.927 5.901zm-37.234 0c3.274 0 5.928-2.643 5.928-5.902 0-3.26-2.654-5.902-5.928-5.902s-5.928 2.643-5.928 5.902c0 3.259 2.654 5.901 5.928 5.901zM52.128 44H37.234m-2.979 0h-5.957M26.809 1H11.915M8.937 1H2.979" stroke="#00999A" stroke-width="2" stroke-miterlimit="10"/></svg>