<svg width="70" height="70" fill="none" xmlns="http://www.w3.org/2000/svg"><path d="M41.918 63.082c15.51-3.821 24.985-19.491 21.164-35-3.821-15.51-19.491-24.985-35-21.164-15.51 3.821-24.985 19.491-21.164 35 3.821 15.51 19.491 24.985 35 21.164zm-6.916.836c-6.94 0-12.684-10.77-13.634-24.79M35.002 6.075v57.843" stroke="#00999A" stroke-width="2" stroke-linejoin="round"/><path d="M42.232 20.797c-2.313.29-4.737.427-7.23.427-8.828 0-16.733-1.887-22.035-4.848m30.298 32.957a58.992 58.992 0 00-8.263-.565c-8.828 0-16.733 1.887-22.035 4.848m8.263-14.488a4.132 4.132 0 100-8.263 4.132 4.132 0 000 8.263zm-4.132-4.132H6.08m57.843 0H25.361" stroke="#00999A" stroke-width="2" stroke-linejoin="round"/><path d="M46.02 23.979a4.132 4.132 0 100-8.264 4.132 4.132 0 000 8.264zm-24.652 6.886c.95-14.02 6.693-24.79 13.634-24.79m12.394 48.202a4.132 4.132 0 100-8.263 4.132 4.132 0 000 8.263zm-2.134 0c-2.52 5.922-6.184 9.64-10.26 9.64" stroke="#00999A" stroke-width="2" stroke-linejoin="round"/><path d="M47.741 23.979c.661 3.402 1.033 7.12 1.033 11.017 0 3.898-.372 7.616-1.033 11.018M35.002 6.075c4.076 0 7.74 3.719 10.26 9.64m11.775 37.901c-1.652-.922-3.54-1.735-5.646-2.424m5.646-34.815c-1.983 1.101-4.325 2.065-6.941 2.823" stroke="#00999A" stroke-width="2" stroke-linejoin="round"/></svg>