<svg width="72" height="71" fill="none" xmlns="http://www.w3.org/2000/svg"><path d="M71 20.091v-4.773c0-1.113-4.296-3.181-7.955-3.181s-7.954 2.068-7.954 3.181v4.773m3.182-14.318C58.273 3.355 60.578 1 63.044 1s4.773 2.355 4.773 4.773v1.59c0 2.419-2.307 4.773-4.773 4.773-2.466 0-4.773-2.354-4.773-4.772V5.773zM71 71v-4.773c0-1.113-4.296-3.182-7.955-3.182s-7.954 2.069-7.954 3.182V71m3.182-14.318c0-2.418 2.306-4.773 4.772-4.773s4.773 2.355 4.773 4.773v1.59c0 2.419-2.307 4.773-4.773 4.773-2.466 0-4.773-2.354-4.773-4.772v-1.591zM36.08 58.273c11.407 0 20.634-9.243 20.602-20.65-.032-11.407-9.291-20.65-20.698-20.65s-20.634 9.243-20.602 20.65c.032 11.407 9.29 20.65 20.698 20.65zm30.148-10.628a32.094 32.094 0 001.59-10.022c0-5.807-1.59-11.248-4.327-15.941M1 20.091v-4.773c0-1.113 4.295-3.181 7.955-3.181 3.659 0 7.954 2.068 7.954 3.181v4.773M13.727 5.773C13.727 3.355 11.42 1 8.954 1 6.488 1 4.182 3.355 4.182 5.773v1.59c0 2.419 2.306 4.773 4.772 4.773s4.773-2.354 4.773-4.772V5.773zM1 71v-4.773c0-1.113 4.295-3.182 7.955-3.182 3.659 0 7.954 2.069 7.954 3.182V71m-3.182-14.318c0-2.418-2.307-4.773-4.773-4.773-2.466 0-4.772 2.355-4.772 4.773v1.59c0 2.419 2.306 4.773 4.772 4.773s4.773-2.354 4.773-4.772v-1.591zM5.71 47.645a32.095 32.095 0 01-1.592-10.022c0-5.807 1.591-11.248 4.327-15.941m13.173 44.386c4.28 2.148 9.1 3.34 14.207 3.34h.27a31.52 31.52 0 0014.207-3.356M20.043 10.084C24.736 7.364 30.193 5.773 36 5.773h-.048a31.749 31.749 0 0115.957 4.295" stroke="#00999A" stroke-width="2" stroke-linejoin="round"/><path d="M35.968 16.91c-6.173 0-11.168 9.258-11.168 20.681 0 11.423 4.995 20.682 11.168 20.682 6.173 0 11.168-9.26 11.168-20.682 0-11.423-4.995-20.682-11.168-20.682zm19.123 12.727H16.909m38.182 15.908H16.909M36 16.91v41.363" stroke="#00999A" stroke-width="2" stroke-linejoin="round"/></svg>