<svg width="72" height="69" fill="none" xmlns="http://www.w3.org/2000/svg"><path d="M19.506 38.013H1v13.88h18.506v-13.88zm-8.559 13.879L5.75 67.314" stroke="#00999A" stroke-width="2" stroke-linecap="round" stroke-linejoin="round"/><path d="M22.714 13.338a6.169 6.169 0 100-12.338 6.169 6.169 0 000 12.338z" stroke="#00999A" stroke-width="2" stroke-miterlimit="10"/><path d="M24.256 28.821l9.13 5.043m-21.467 33.45l5.984-15.422m18.567 6.169l-1.603-13.88-10.734-6.168V22.59c0-2.9-1.959-3.285-4.565-4.627-2.498-1.28-4.95-1.496-7.68 0-1.62.895-3.115 1.959-3.115 1.959-1.049.879-1.604 1.912-1.604 3.285v14.79m12.353 6.476l9.207 3.548 1.496 10.024M13.338 24.98v12.075c0 .309 0 .633.03.941" stroke="#00999A" stroke-width="2" stroke-linecap="round" stroke-linejoin="round"/><path d="M35.762 51.938c8.112-5.104 14.172-10.502 17.642-19.493l-7.48-2.73L68.38 13.337l2.622 26.171s-4.642-1.45-6.4-2.174c-5.275 12.83-24.521 29.98-46.266 29.81m-3.78-6.631c5.135-1.141 10.332-2.884 15.252-5.274M1 62.688c2.16 0 4.364-.51 6.616-1.018" stroke="#00999A" stroke-width="2" stroke-linecap="round" stroke-linejoin="round"/></svg>