<svg width="72" height="68" fill="none" xmlns="http://www.w3.org/2000/svg"><path d="M20.09 34.489H8.954m54.091 0H51.91M1 58.384c0-4.104 3.182-7.986 7.955-7.986V23.734C4.182 23.734 1 27.218 1 31.307v27.077zm70 0c0-4.104-3.181-7.986-7.954-7.986V23.734c4.773 0 7.954 3.484 7.954 7.573v27.077z" stroke="#00999A" stroke-width="2" stroke-linejoin="round"/><path d="M71 58.368c0 4.296-3.58 7.939-7.987 7.939H9.002c-4.407 0-7.986-3.643-7.986-7.939" stroke="#00999A" stroke-width="2" stroke-linejoin="round"/><path d="M35.985 12.216H36c3.5 0 6.347 2.657 6.347 6.348 0 3.69-2.831 6.38-6.331 6.38h-.064c-3.5 0-6.348-2.673-6.332-6.38 0-3.691 2.848-6.348 6.348-6.348h.016z" stroke="#00999A" stroke-width="2" stroke-miterlimit="10"/><path d="M36 1c9.61 0 17.39 7.78 17.39 17.389 0 4.152-.605 7.032-2.975 10.802C48.06 32.96 36 50.477 36 50.477S23.94 32.961 21.587 29.191c-2.354-3.77-2.975-6.65-2.975-10.802C18.612 8.779 26.392 1 36.001 1z" stroke="#00999A" stroke-width="2" stroke-miterlimit="10"/></svg>