<svg width="72" height="69" fill="none" xmlns="http://www.w3.org/2000/svg"><path d="M27.092 24.022C25.604 32.187 16.35 35.518 16.35 43.975c0 5.725 5.018 10.744 10.743 10.744 5.725 0 10.744-5.02 10.744-10.744 0-8.457-9.24-11.788-10.744-19.953zm26.092 3.07c-1.075 4.666-7.674 7.705-7.674 13.813 0 4.129 3.545 7.674 7.674 7.674 4.129 0 7.674-3.545 7.674-7.674 0-6.108-6.6-9.147-7.674-13.813zM40.905 10.209c-.844 3.085-6.14 7.828-6.14 12.279 0 3.008 2.87 6.139 6.14 6.139 3.27 0 6.14-3.131 6.14-6.14 0-4.45-5.296-9.193-6.14-12.278z" stroke="#00999A" stroke-width="2" stroke-linejoin="round"/><path d="M45.878 3.501c17.435 4.022 28.317 21.427 24.28 38.877a26.916 26.916 0 01-.598 2.18M31.298 3.501C19.618 6.203 9.888 15.32 7.018 27.798a32.195 32.195 0 00.582 16.76m7.29 12.632a32.169 32.169 0 0016.407 9.47c11.68 2.701 23.344-1.305 30.988-9.485" stroke="#00999A" stroke-width="2" stroke-miterlimit="10"/><path d="M11.467 36.193L7.6 44.558 1 38.112m52.107 19.907l9.179-.844-2.272 8.932m-8.826-55.085l-5.31-7.52L54.749 1" stroke="#00999A" stroke-width="2" stroke-miterlimit="10"/></svg>