<svg width="72" height="69" fill="none" xmlns="http://www.w3.org/2000/svg"><path d="M28.672 50.19l4.144-14.623h-9.83l18.133-21.124-3.558 14.624h9.846L28.672 50.191zm20.734 9.506s10.773 2.551 17.37-4.76c6.06-6.728.617-14.495 4.224-22.262-12.186 2.535-21.676 9.75-22.748 21.66M24.236 3.28C26.137 20.536 10.716 22.243 1 20.57 7.857 14.509 7.012.372 17.671 1.022m49.722 60.185l2.502 3.819c-3.396.26-22.7 6.597-24.08-3.689" stroke="#00999A" stroke-width="2" stroke-linecap="round" stroke-linejoin="round"/><path d="M62.648 45.836c-5.02 10.27-15.566 17.354-27.753 17.354-17.045 0-30.873-13.828-30.873-30.873a29.6 29.6 0 01.31-4.355m7.733-16.427c5.654-6.207 13.778-10.09 22.83-10.09 15.354 0 28.077 11.195 30.466 25.867" stroke="#00999A" stroke-width="2" stroke-linecap="round" stroke-linejoin="round"/></svg>