<svg width="72" height="69" viewBox="0 0 72 69" fill="none" xmlns="http://www.w3.org/2000/svg">
<path d="M28.6724 50.1907L32.8159 35.5667H22.9854L41.1191 14.4432L37.5606 29.0672H47.4074L28.6724 50.1907Z" stroke="#00999A" stroke-width="2" stroke-linecap="round" stroke-linejoin="round"/>
<path d="M49.4056 59.6961C49.4056 59.6961 60.1786 62.2472 66.7756 54.9352C72.8364 48.2082 67.3931 40.4413 71.0003 32.6743C58.8137 35.2091 49.3244 42.4236 48.252 54.334" stroke="#00999A" stroke-width="2" stroke-linecap="round" stroke-linejoin="round"/>
<path d="M24.2358 3.28026C26.137 20.5365 10.7168 22.2426 1 20.569C7.85701 14.5082 7.01207 0.371723 17.6713 1.02168" stroke="#00999A" stroke-width="2" stroke-linecap="round" stroke-linejoin="round"/>
<path d="M67.3929 61.2074L69.8952 65.0259C66.4992 65.2859 47.1956 71.6229 45.8145 61.3374" stroke="#00999A" stroke-width="2" stroke-linecap="round" stroke-linejoin="round"/>
<path d="M62.6483 45.836C57.6274 56.1053 47.0819 63.1898 34.8953 63.1898C17.8502 63.1898 4.02246 49.362 4.02246 32.317C4.02246 30.8383 4.11995 29.3922 4.33119 27.9623" stroke="#00999A" stroke-width="2" stroke-linecap="round" stroke-linejoin="round"/>
<path d="M12.0645 11.5346C17.719 5.32758 25.8435 1.44409 34.8941 1.44409C50.2492 1.44409 62.9721 12.6396 65.3606 27.3123" stroke="#00999A" stroke-width="2" stroke-linecap="round" stroke-linejoin="round"/>
</svg>
