<svg width="71" height="45" viewBox="0 0 71 45" fill="none" xmlns="http://www.w3.org/2000/svg">
<path d="M25.3193 32.1379H50.6385" stroke="#00999A" stroke-width="2" stroke-miterlimit="10"/>
<path d="M4.46777 32.1379H13.4039" stroke="#00999A" stroke-width="2" stroke-miterlimit="10"/>
<path d="M62.5532 32.138H70V24.7984C70 21.3287 65.9638 17.0435 53.617 15.8722C46.0064 10.3118 39.8851 8.42871 34.2553 8.42871H26.8085C20.5979 8.42871 11.9149 14.3598 5.95745 14.3598H0" stroke="#00999A" stroke-width="2" stroke-miterlimit="10"/>
<path d="M49.2832 17.6069L46.3044 18.7932H25.3193" stroke="#00999A" stroke-width="2" stroke-miterlimit="10"/>
<path d="M56.5663 38.0691C59.8401 38.0691 62.494 35.4269 62.494 32.1677C62.494 28.9085 59.8401 26.2664 56.5663 26.2664C53.2926 26.2664 50.6387 28.9085 50.6387 32.1677C50.6387 35.4269 53.2926 38.0691 56.5663 38.0691Z" stroke="#00999A" stroke-width="2" stroke-miterlimit="10"/>
<path d="M19.332 38.0691C22.6057 38.0691 25.2596 35.4269 25.2596 32.1677C25.2596 28.9085 22.6057 26.2664 19.332 26.2664C16.0582 26.2664 13.4043 28.9085 13.4043 32.1677C13.4043 35.4269 16.0582 38.0691 19.332 38.0691Z" stroke="#00999A" stroke-width="2" stroke-miterlimit="10"/>
<path d="M52.128 44H37.2344" stroke="#00999A" stroke-width="2" stroke-miterlimit="10"/>
<path d="M34.2553 44H28.2979" stroke="#00999A" stroke-width="2" stroke-miterlimit="10"/>
<path d="M26.8087 1H11.915" stroke="#00999A" stroke-width="2" stroke-miterlimit="10"/>
<path d="M8.93694 1H2.97949" stroke="#00999A" stroke-width="2" stroke-miterlimit="10"/>
</svg>
