<svg width="72" height="62" fill="none" xmlns="http://www.w3.org/2000/svg"><path d="M48.968 1c3.534 0 6.396 2.574 6.396 5.756v2.878c0 3.182-2.862 5.756-6.396 5.756s-6.396-2.574-6.396-5.756V6.756C42.572 3.574 45.434 1 48.968 1zM33.955 18.413L31.38 8.995H4.198l4.797 17.588h12.792" stroke="#00999A" stroke-width="2" stroke-linecap="round" stroke-linejoin="round"/><path d="M59.97 23.385c-.593-2.798-1.6-7.994-7.452-7.994h-4.27a8.67 8.67 0 00-5.787 2.206l-5.485 5.437s-5.18 1.055-7.163 1.423c-2.03.383-3.23 1.678-3.23 3.71 0 2.03 1.583 3.197 3.933 3.197h8.06l6.715-3.454" stroke="#00999A" stroke-width="2" stroke-linecap="round" stroke-linejoin="round"/><path d="M43.949 28.63l1.822 7.563s-5.308 1.855-7.243 2.574c-1.919.72-3.358 1.919-4.061 4.093l-6.3 15.718m37.08-11.208H50.92c-1.007 0-1.759-.928-1.567-1.92l4.157-20.786a1.58 1.58 0 011.568-1.279h14.326c1.007 0 1.759.928 1.567 1.919L66.814 46.09a1.58 1.58 0 01-1.567 1.28zm-9.883 0v9.593m11.193 3.198v-1.599l-11.193-1.599-11.192 1.6v1.598m11.192-3.198v3.198M30.517 31.38H1m7.995 0v27.182" stroke="#00999A" stroke-width="2" stroke-linecap="round" stroke-linejoin="round"/><path d="M36.177 58.562l5.98-11.049c.496-.959 1.439-1.742 2.43-1.742h4.733" stroke="#00999A" stroke-width="2" stroke-linecap="round" stroke-linejoin="round"/></svg>