<svg width="148" height="73" fill="none" xmlns="http://www.w3.org/2000/svg"><path fill-rule="evenodd" clip-rule="evenodd" d="M29.301 30.146l9.673-5.022 9.778 5.022-9.778 5.035-9.673-5.035zm58.072 2.439v-.121c0-1.653.972-2.183 2.609-2.066v-3.021c-3.922-.24-5.782 1.726-5.782 5.087v.12h-1.773v3.023H84.2v9.148h3.172v-9.148h3.65v9.148h3.172v-9.148h2.61v-3.022h-2.61v-.121c0-1.653.956-2.183 2.61-2.066v-3.021c-3.922-.24-5.782 1.726-5.782 5.087v.12h-3.65zM65.2 35.894c1.006-.8 1.62-1.944 1.62-3.413 0-2.848-2.32-4.796-5.236-4.796h-6.77V44.72h7.316c2.985 0 5.372-2.013 5.372-4.93-.033-1.761-.92-3.11-2.302-3.896zm-3.599-5.052c1.092 0 1.842.804 1.842 1.878 0 1.078-.784 1.878-1.842 1.878h-3.394v-3.756h3.394zm.512 10.756h-3.906v-4.013h3.906c1.16 0 1.996.852 1.996 1.995 0 1.162-.836 2.018-1.996 2.018zm15.282-9.03v6.57c0 2.117-1.16 3.021-2.712 3.021-1.433 0-2.439-.852-2.439-2.51v-7.081h-3.172v7.474c0 3.243 2.03 5.039 4.656 5.039 1.654 0 2.933-.618 3.65-1.709v1.365h3.172v-12.17h-3.155zm32.559 7.373h-9.278c.461 1.605 1.791 2.288 3.445 2.288 1.245 0 2.235-.514 2.763-1.213l2.558 1.452c-1.142 1.656-2.984 2.613-5.355 2.613-4.127 0-6.737-2.8-6.737-6.435 0-3.639 2.627-6.44 6.498-6.44 3.633 0 6.226 2.853 6.226 6.44 0 .474-.052.887-.12 1.295zm-6.106-4.882c-1.705 0-2.865.905-3.224 2.456h6.277c-.392-1.756-1.722-2.456-3.053-2.456zm10.813-.392v-2.1h-3.172v12.17h3.172v-5.821c0-2.562 2.082-3.292 3.736-3.088v-3.5c-1.552 0-3.104.683-3.736 2.34zm-75.687 9.127l-6.6-3.587-3.073 1.665 9.673 5.252 9.778-5.252-3.11-1.665-6.668 3.587zm-6.6-9.243l6.6 3.251 6.669-3.252 3.108 1.518-9.777 4.77-9.673-4.77 3.074-1.517z" fill="#1B313B"/></svg>07C99.9596 45.0807 97.3501 42.2808 97.3501 38.6461C97.3501 35.007 99.9766 32.2066 103.848 32.2066C107.481 32.2066 110.074 35.0592 110.074 38.6461C110.074 39.12 110.022 39.533 109.954 39.9412ZM103.848 35.0592C102.143 35.0592 100.983 35.9635 100.624 37.5152H106.901C106.509 35.7592 105.179 35.0592 103.848 35.0592ZM114.661 34.6674V32.5675H111.489V44.7372H114.661V38.9156C114.661 36.3544 116.743 35.6244 118.397 35.8283V32.3288C116.845 32.3288 115.293 33.0114 114.661 34.6674ZM38.9743 43.7938L32.3749 40.2069L29.301 41.8721L38.9743 47.1241L48.7515 41.8721L45.6429 40.2069L38.9743 43.7938ZM32.3749 34.5505L38.9743 37.8022L45.6429 34.5505L48.7515 36.0678L38.9743 40.8373L29.301 36.0678L32.3749 34.5505Z" fill="#1B313B"/>
</g>
</g>
</g>
</g>
</svg>
