<svg width="80" height="96" fill="none" xmlns="http://www.w3.org/2000/svg"><g stroke="#00999A" stroke-width="4" stroke-linecap="round" stroke-linejoin="round"><path d="M26.99 71.965l-6.945-2.651c-3.106-4.947-7.123-10.507-14.84-5.936l4.452 10.21 7.816 8.449s10.19 7.044 11.457 7.044h29.125l4.057 3.957"/><path d="M50.714 77.228H32.907c-7.915 0-7.915-9.893 0-9.893h11.872c1.642 0 4.748-3.957 7.36-3.957h9.893c2.672 0 5.996 2.177 7.915 3.957C72.915 70.303 78 75.111 78 75.111M40.584 36.429c.593-2.691 1.068-4.274 1.068-4.274l-5.62-6.53-7.815-2.77-1.94.574-6.707 3.779s-.277 3.067.831 4.432c2.89 3.582 9.201 4.234 11.041 5.976 2.157 2.057 3.7 5.441 3.64 7.736-.059 2.296-3.64 2.83-5.717 1.9-1.227-.534-11.615-4.017-18.204-6.312A18.388 18.388 0 012 33.935"/><path d="M8.469 2s16.66 4.393 28.79 7.756a12.089 12.089 0 016.766 4.809l9.32 15.196-5.283 15.492"/><path d="M30.73 37.121a11.92 11.92 0 015.678-1.444c6.55 0 11.872 5.322 11.872 11.872 0 6.549-5.323 11.872-11.872 11.872-6.55 0-11.872-5.323-11.872-11.872 0-.653.06-1.306.158-1.94"/></g></svg>