<svg width="74" height="92" fill="none" xmlns="http://www.w3.org/2000/svg"><path d="M26.986 1.66l1.303 4.85M10.43 11.454l3.545 3.545M1 28.223l4.849 1.303M1.212 47.463l4.849-1.303m4.963 17.861l3.545-3.545m49.001 2.951l-3.545-3.526M73 46.678l-4.849-1.303m4.638-17.938L67.94 28.74m-4.943-17.86l-3.546 3.544M46.228 1.45L44.925 6.3m1.111 79.473h-3.833l-3.832 3.833h-3.833l-3.833-3.833h-3.833M23.04 72.358h26.829M23.04 80.023h26.829m-1.917-11.498v-3.833c0-4.063 1.725-8.106 4.6-10.981 4.33-4.35 6.899-11.134 6.899-17.765 0-12.706-10.291-22.997-22.997-22.997s-22.997 10.29-22.997 22.997c0 6.63 2.568 13.415 6.899 17.765 2.874 2.875 4.6 6.918 4.6 10.981v3.833" stroke="#00999A" stroke-width="4" stroke-miterlimit="10"/></svg>