<svg width="147" height="73" fill="none" xmlns="http://www.w3.org/2000/svg"><path fill-rule="evenodd" clip-rule="evenodd" d="M108.185 37.002c0-4.956-2.401-8.867-6.989-8.867-4.608 0-7.395 3.91-7.395 8.828 0 5.827 3.29 8.77 8.015 8.77 2.303 0 4.046-.523 5.362-1.259v-3.872c-1.316.659-2.826 1.065-4.743 1.065-1.878 0-3.543-.658-3.756-2.943h9.467c0-.251.039-1.258.039-1.722zm-9.564-1.84c0-2.187 1.336-3.097 2.556-3.097 1.181 0 2.439.91 2.439 3.097h-4.995zm-12.293-7.027c-1.898 0-3.117.89-3.795 1.51l-.252-1.2h-4.259v22.573l4.84-1.026.02-5.48c.697.504 1.723 1.22 3.426 1.22 3.466 0 6.621-2.787 6.621-8.924-.019-5.614-3.213-8.673-6.601-8.673zm-1.162 13.338c-1.142 0-1.82-.406-2.284-.91l-.02-7.182c.504-.561 1.2-.948 2.304-.948 1.762 0 2.982 1.974 2.982 4.51 0 2.595-1.2 4.53-2.982 4.53zm-13.803-14.48l4.859-1.045v-3.93l-4.86 1.026v3.949zm0 1.471h4.859v16.94h-4.86v-16.94zm-5.208 1.433l-.31-1.433h-4.182v16.94h4.84v-11.48c1.143-1.491 3.079-1.22 3.679-1.007v-4.453c-.62-.232-2.885-.658-4.027 1.433zm-9.68-5.634l-4.724 1.007-.02 15.507c0 2.865 2.15 4.975 5.015 4.975 1.587 0 2.75-.29 3.388-.639v-3.93c-.62.252-3.678 1.142-3.678-1.723v-6.872h3.678v-4.124h-3.678l.019-4.2zm-13.087 9.118c0-.755.62-1.045 1.645-1.045 1.472 0 3.33.445 4.802 1.239v-4.55c-1.607-.638-3.195-.89-4.802-.89-3.93 0-6.543 2.052-6.543 5.479 0 5.343 7.356 4.491 7.356 6.795 0 .89-.774 1.18-1.858 1.18-1.607 0-3.66-.657-5.285-1.548v4.607a13.42 13.42 0 005.285 1.104c4.027 0 6.795-1.994 6.795-5.46-.02-5.768-7.395-4.742-7.395-6.91z" fill="#1B313B"/></svg>