<svg width="108" height="94" fill="none" xmlns="http://www.w3.org/2000/svg"><g stroke="#00999A" stroke-width="4" stroke-miterlimit="10"><path d="M37.201 77.319c.867-.867 1.78-2.281 4.563-2.281h33.58c2.532 0 16.47-13.984 18.25-15.969 1.71-1.916 9.307-13.322 11.406-18.25-1.323-1.78-4.905-3.262-9.125-2.281-4.038.935-6.41 3.832-9.125 9.125l-10.448 5.43"/><path d="M50.25 61.35h20.53c9.126 0 9.126-11.406 0-11.406H57.094c-1.893 0-5.475-4.562-8.486-4.562H37.2c-3.08 0-6.913 2.51-9.125 4.562-3.422 3.422-9.445 9.125-9.445 9.125"/><path d="M14.405 54.514L3 65.918l25.1 25.1 11.404-11.405-25.1-25.1zm-.017 11.399l4.563 4.563m30.157-52.469a7.984 7.984 0 100-15.969 7.984 7.984 0 000 15.969zM71.92 38.538c-4.402 0-7.983-3.581-7.983-7.984 0-4.403 3.581-7.985 7.984-7.985 4.403 0 7.984 3.582 7.984 7.985 0 4.402-3.581 7.984-7.984 7.984zm-26.233 0l29.657-36.5"/></g></svg>