<svg width="92" height="87" fill="none" xmlns="http://www.w3.org/2000/svg"><g stroke="#00999A" stroke-width="4" stroke-linejoin="round"><path d="M11.07 41.237C4.199 36.772-.536 29.632 3.467 20.952 7.471 12.272 24.08 10.75 31.664 2.244c6.87 7.833 7.236 20.844 1.097 31.083-4.139 6.89-11.683 7.834-15.61 7.814"/><path d="M41.19 8.018a39.15 39.15 0 019.797-1.232C72.524 6.786 90 24.243 90 45.8c0 21.556-17.457 39.013-39.013 39.013-21.556 0-39.013-17.457-39.013-39.013 0-12.125 5.524-22.942 14.204-30.102"/><path d="M90 48.224h-5.774l-3.849-5.774h-3.85l-1.924 1.925H68.83l-9.623-9.623H45.733v-3.85a7.697 7.697 0 017.699-7.699h3.85l3.848-3.849h9.624l3.85-3.85M61.13 71.32h-5.774V57.847l-3.849-3.85H43.81v-5.773l5.774-5.774h9.623l9.623 9.623v11.548l-7.7 7.699z"/></g></svg>