<svg width="78" height="101" fill="none" xmlns="http://www.w3.org/2000/svg"><g stroke="#00999A" stroke-width="4" stroke-miterlimit="10"><path d="M15.485 29.631c3.321.146 7.624.71 7.624.71 1.63 3.718 7.374 7.123 8.648 8.188 3.425 2.841 10.423 3.342 13.138 5.39 3.885 2.924 7.081 6.391 12.052 6.454 5.849.062 6.37-3.864 5.744-6.016-.585-1.984-1.128-4.198-5.451-6.37-2.904-1.463-6.308-2.653-7.875-6.079-.877-1.922-1.546-3.885-1.232-5.577.543-2.799 3.383-3.196 4.93-2.966 2.443.355 9.106 7.123 10.735 8.606-.417 1.462-1.692 4.323-1.754 6.893-.188 7.018 3.196 11.801 5.535 11.801 4.198 0 3.78-5.096 4.679-9.002.647-2.883 3.613-13.87 2.569-15.583-1.044-1.712-11.467-14.036-14.308-14.913-2.84-.857-19.906-6.6-26.256-6.6H15.464"/><path d="M15.485 2.477H2.952V33.81h12.533V2.477zm45.953 54.308c-5.765 0-10.444 4.679-10.444 10.444 0 4.282 2.59 7.958 6.266 9.567v2.966l2.089 2.088-2.089 2.09v4.177l2.089 2.088-2.089 2.09v6.265h4.178l4.177-4.177V76.796c3.677-1.609 6.267-5.285 6.267-9.567 0-5.765-4.68-10.444-10.444-10.444zm-12.533 2.903a10.49 10.49 0 00-7.395 3.05c-3.028 3.029-3.801 7.436-2.339 11.196l-6.997 6.997v2.987l-4.178 1.19-4.22 4.22 2.946 2.945h5.452l12.532-12.532c2.59 1.023 5.682 1.002 8.355-.105m8.376-14.496V48.43"/></g></svg>72 57.2602 76.7955V79.7616L59.349 81.8503L57.2602 83.9391V88.1166L59.349 90.2054L57.2602 92.2942V98.5604H61.4377L65.6152 94.3829V76.7955C69.2915 75.1872 71.8815 71.5109 71.8815 67.229C71.8815 61.464 67.2027 56.7852 61.4377 56.7852Z" stroke="#00999A" stroke-width="4" stroke-miterlimit="10"/>
<path id="Vector_4" d="M48.9047 59.6885C46.2311 59.6885 43.5575 60.712 41.5105 62.7381C38.4818 65.7668 37.7089 70.1741 39.171 73.9339L32.1737 80.9312V83.9182L27.9962 85.1087L23.7769 89.328L26.722 92.2732H32.1737L44.7063 79.7406C47.2963 80.7641 50.3877 80.7432 53.0613 79.6362" stroke="#00999A" stroke-width="4" stroke-miterlimit="10"/>
<path id="Vector_5" d="M61.4373 65.1403V48.4302" stroke="#00999A" stroke-width="4" stroke-miterlimit="10"/>
</g>
</svg>
