<svg width="92" height="75" fill="none" xmlns="http://www.w3.org/2000/svg"><g stroke="#00999A" stroke-width="4" stroke-miterlimit="10"><path d="M63.072 13.646h19.084v5.725h3.817v7.634h-3.817v11.451M78.34.287v13.359M70.706 7.92v5.726m-20.994 9.542H30.628V34.64m38.169 3.816V23.188H49.712v15.268M30.628 23.188H11.543V34.64m47.712-11.452V9.828H40.17m0 13.36V9.828H21.085v13.36"/><path d="M16.543 57.12c0-10.954-14.542-11.03-14.542-22.481h34.123l8.95 3.817h40.9v11.298c0 2.805-.153 4.6-1.05 5.974"/><path d="M12.764 59.945l6.298-4.943c1.412-1.107 3.263-.973 4.561.325l2.348 2.366c1.316 1.336 3.206 1.432 4.637.268l3.55-2.92c1.393-1.145 3.225-1.07 4.542.19l2.69 2.558c1.356 1.279 3.226 1.317 4.62.114l3.225-2.786c1.355-1.183 3.187-1.164 4.542.038l3.015 2.71c1.374 1.222 3.264 1.222 4.619-.038l2.9-2.653c1.336-1.221 3.169-1.26 4.543-.095l3.34 2.843c1.393 1.184 3.282 1.126 4.618-.171l2.557-2.481c1.317-1.279 3.15-1.375 4.543-.248l6.087 4.904M2 69.125l1.642-1.298c1.412-1.106 3.263-.973 4.561.325l2.348 2.366c1.316 1.336 3.206 1.432 4.637.267l3.55-2.92c1.393-1.144 3.225-1.068 4.542.191l2.691 2.558c1.355 1.278 3.225 1.317 4.619.114l3.225-2.786c1.355-1.183 3.187-1.164 4.542.038l3.015 2.71c1.374 1.222 3.264 1.222 4.619-.038l2.9-2.653c1.337-1.221 3.169-1.26 4.543-.095l3.34 2.843c1.393 1.184 3.282 1.126 4.618-.171l2.558-2.481c1.316-1.28 3.148-1.374 4.542-.248l6.088 4.904M30.628 42.273h3.817"/></g></svg>