<svg width="147" height="73" fill="none" xmlns="http://www.w3.org/2000/svg"><path d="M86.784 25.124h-3.448v19.284c3.133.108 6.254.266 9.362.474v-3.398a294.94 294.94 0 00-5.914-.334V25.124zm27.403.002h-3.788l-2.497 5.787-2.243-5.787h-3.731l4.01 10.34-4.377 10.145c1.211.118 2.418.244 3.624.377l2.546-5.898 2.52 6.502c1.313.169 2.623.345 3.93.532l.006-.003-4.492-11.584 4.492-10.41zM71.499 44.24h3.449v-7.845h4.674v-3.398h-4.674v-4.443h6.178v-3.428h-9.627V44.24zM58.623 28.554h3.609v15.888c1.147-.043 2.297-.08 3.448-.11V28.555h3.609v-3.428H58.623v3.428zM46.835 45.43c3.178-.288 6.37-.526 9.578-.711V41.32c-2.05.118-4.093.259-6.13.419v-5.144c1.337-.013 3.097-.054 4.656-.035v-3.398a385.22 385.22 0 00-4.656.036v-4.644h6.13v-3.428h-9.578V45.43zm-6.764-7.854l-4.491-12.45h-3.277v21.998c1.147-.163 2.296-.32 3.448-.47V34.692l3.993 11.471c1.256-.145 2.514-.283 3.775-.413V25.126H40.07v12.449zm55.47 7.511c1.15.088 2.3.183 3.448.285V25.126H95.54v19.96z" fill="#1B313B"/></svg>