<svg width="90" height="81" fill="none" xmlns="http://www.w3.org/2000/svg"><g stroke="#00999A" stroke-width="4" stroke-linejoin="round"><path d="M19.342 40.537a34.031 34.031 0 012.486-9.565M20.47 53.91a33.693 33.693 0 01-1.282-7.633M24.87 25.31c6.16-9.279 16.72-15.4 28.695-15.4C72.581 9.91 88 25.329 88 44.344 88 63.36 72.581 78.78 53.565 78.78c-13.525 0-25.213-7.786-30.857-19.13"/><path d="M53.565 50.103a5.74 5.74 0 100-11.478 5.74 5.74 0 000 11.478zM47.826 2.277h11.478m-5.739 7.652V2.277m26.783 9.565l-5.74 5.739m1.914-9.565l7.652 7.652m-26.783 24.87l15.305-15.305M49.74 48.19L44 53.929M11.478 25.233h28.696M0 40.538h28.696M7.652 53.929h26.783"/></g></svg>