<svg width="92" height="75" fill="none" xmlns="http://www.w3.org/2000/svg"><g stroke="#00999A" stroke-width="4" stroke-linejoin="round"><path d="M55.565 59.519H2V17.432h53.565m15.305 0H90v42.087H70.87" stroke-linecap="round"/><path d="M32.609 25.084H14.51c0 2.143-2.18 3.865-4.859 3.865v19.053c2.679 0 4.86 1.722 4.86 3.865h18.097M70.87 25.084h6.619c0 2.143 2.18 3.865 4.859 3.865v19.053c-2.678 0-4.86 1.722-4.86 3.865H70.87" stroke-linecap="round"/><path d="M23.044 38.476h3.825M46 51.867c5.283 0 9.565-5.996 9.565-13.392 0-7.395-4.282-13.39-9.565-13.39-5.283 0-9.565 5.995-9.565 13.39 0 7.396 4.282 13.392 9.565 13.392zm17.217-11.479v7.653m0-21.044v7.653m0-21.044v7.652m0 32.522v7.652m0 5.739v7.652m0-74.608v7.652"/></g></svg>