<svg width="68" height="85" fill="none" xmlns="http://www.w3.org/2000/svg"><path d="M24.686 1.196l1.212 4.51M9.284 10.305l3.298 3.298M.514 25.903l4.51 1.212M.71 43.8l4.51-1.212m4.617 16.614l3.297-3.297m45.582 2.745l-3.298-3.28m12.068-12.3l-4.51-1.213m4.314-16.685l-4.51 1.212M58.181 9.77l-3.298 3.298M42.583 1l-1.212 4.51M30.8 47.152c-5.33-1.23-8.467-7.06-7.95-10.393 1.373-8.949 10.036-10.767 13.156-17.523 6.025 3.262 10.464 10.607 8.645 18.093-1.23 5.045-7.415 7.648-9.947 8.468m-1.889 8.681c-4.92-10.178.07-18.895 2.656-26.186m6.934 51.143H38.84L35.274 83H31.71l-3.565-3.565H24.58m-3.566-12.478H45.97m-24.956 7.13H45.97" stroke="#00999A" stroke-width="4" stroke-miterlimit="10"/><path d="M44.188 63.391v-3.565c0-3.779 1.604-7.54 4.278-10.214 4.029-4.047 6.417-10.357 6.417-16.525 0-11.819-9.572-21.391-21.391-21.391-11.819 0-21.391 9.572-21.391 21.391 0 6.168 2.388 12.478 6.417 16.525 2.674 2.674 4.278 6.435 4.278 10.214v3.565" stroke="#00999A" stroke-width="4" stroke-miterlimit="10"/></svg>