<svg width="66" height="84" fill="none" xmlns="http://www.w3.org/2000/svg"><path d="M16.365 2c-3.538 0-6.19 3.06-6.19 6.827v2.282c0 3.768 2.652 6.828 6.19 6.828 3.537 0 6.19-3.06 6.19-6.828V8.827C22.555 5.06 19.902 2 16.365 2zm11.497 81.363V55.098M19.018 58.6v24.763M8.405 45.105v38.258" stroke="#00999A" stroke-width="4" stroke-miterlimit="10"/><path d="M17.71 51.826l33.623 10.86 3.502-11.196c.531-1.698-.283-2.565-1.591-2.3-1.398.284-3.096.832-4.705.32-3.485-1.098-5.43-4.794-4.334-8.261 1.08-3.485 4.794-5.413 8.278-4.316 1.627.513 2.706 1.91 3.697 2.954.92.955 2.087.725 2.617-.973l4.6-14.68s-9.464-2.954-10.507-3.29c-1.698-.531-1.946-1.698-.973-2.618 1.026-.99 2.44-2.07 2.954-3.68 1.079-3.484-.85-7.18-4.334-8.26-3.484-1.096-7.18.85-8.277 4.316-.513 1.628.035 3.308.318 4.705.265 1.31-.584 2.123-2.3 1.592-1.043-.336-10.506-3.29-10.506-3.29l-6.88 21.792" stroke="#00999A" stroke-width="4" stroke-linecap="round" stroke-linejoin="round"/><path d="M11.483 32.564l1.592 3.998c.637 1.592 1.415 2.228 2.9 2.777 0 0 7.111 1.415 9.517 1.928-1.327 5.235-4.21 6.013-7.482 5.589-1.858-.248-7.075-.92-7.075-.92-1.716-.23-2.866-.619-4.475-2.99l-1.54-3.325c-1.361-2.918-2.316-4.174-2.316-6.562 0-4.987 2.6-9.834 8.313-9.834h9.887" stroke="#00999A" stroke-width="4" stroke-linecap="round" stroke-linejoin="round"/></svg>