<svg width="98" height="85" fill="none" xmlns="http://www.w3.org/2000/svg"><path d="M40.547 37.953a2.12 2.12 0 01-2.114-2.113v-6.341c0-2.41 6.996-6.341 12.682-6.341 5.706 0 12.681 3.931 12.681 6.34v6.342a2.12 2.12 0 01-2.113 2.113H40.547zm10.567-14.796c5.073 0 8.455-4.058 8.455-9.067v-3.022c0-5.01-3.36-9.068-8.455-9.068-5.094 0-8.454 4.058-8.454 9.068v3.022c0 5.01 3.382 9.067 8.454 9.067zM72.25 82.339a2.12 2.12 0 01-2.114-2.114v-6.34c0-2.41 6.997-6.342 12.682-6.342 5.707 0 12.682 3.932 12.682 6.341v6.341a2.12 2.12 0 01-2.114 2.114H72.25z" stroke="#00999A" stroke-width="4" stroke-miterlimit="10"/><path d="M82.818 67.544c5.073 0 8.455-4.058 8.455-9.067v-3.023c0-5.01-3.361-9.067-8.455-9.067-5.094 0-8.454 4.058-8.454 9.067v3.023c0 5.009 3.36 9.067 8.454 9.067zM4.614 82.339A2.12 2.12 0 012.5 80.225v-6.34c0-2.41 6.996-6.342 12.682-6.342 5.707 0 12.682 3.932 12.682 6.341v6.341a2.12 2.12 0 01-2.114 2.114H4.614z" stroke="#00999A" stroke-width="4" stroke-miterlimit="10"/><path d="M15.181 67.544c5.073 0 8.455-4.058 8.455-9.067v-3.023c0-5.01-3.36-9.067-8.455-9.067-5.093 0-8.454 4.058-8.454 9.067v3.023c0 5.009 3.382 9.067 8.454 9.067zm-4.227-27.477V18.931a6.332 6.332 0 016.34-6.341h16.91" stroke="#00999A" stroke-width="4" stroke-miterlimit="10"/><path d="M25.75 21.044l8.455-8.455-8.455-8.454m16.908 69.75l-8.454-8.454 8.454-8.455M65.91 12.59h12.68a6.332 6.332 0 016.341 6.34v19.023" stroke="#00999A" stroke-width="4" stroke-miterlimit="10"/><path d="M76.477 29.498l8.454 8.455 8.455-8.455M65.908 65.43H34.204" stroke="#00999A" stroke-width="4" stroke-miterlimit="10"/></svg>