<svg width="92" height="86" fill="none" xmlns="http://www.w3.org/2000/svg"><path d="M30.526 72.83c.748-.748 1.535-1.968 3.935-1.968h28.962c2.183 0 14.205-12.06 15.74-13.772C80.637 55.437 87.19 45.6 89 41.35c-1.141-1.535-4.23-2.814-7.87-1.968-3.483.807-5.529 3.306-7.87 7.87l-9.011 4.683" stroke="#00999A" stroke-width="4" stroke-miterlimit="10"/><path d="M41.78 59.057h17.707c7.87 0 7.87-9.837 0-9.837H47.682c-1.633 0-4.721-3.935-7.319-3.935h-9.837c-2.656 0-5.961 2.164-7.87 3.935-2.951 2.95-8.145 7.87-8.145 7.87" stroke="#00999A" stroke-width="4" stroke-miterlimit="10"/><path d="M10.874 53.147L3 61.02l21.647 21.647 7.875-7.874-21.648-21.647zM55.553 17.74c3.541 0 5.902-3.01 5.902-6.749V8.748C61.455 5.03 59.095 2 55.553 2 52.01 2 49.65 5.01 49.65 8.748v2.243c0 3.719 2.361 6.749 5.903 6.749zm19.675 3.935c3.541 0 5.902-3.01 5.902-6.748v-2.243c0-3.719-2.361-6.749-5.902-6.749-3.542 0-5.903 3.01-5.903 6.749v2.243c0 3.718 2.361 6.748 5.903 6.748zm-39.35 0c3.541 0 5.903-3.01 5.903-6.748v-2.243c0-3.719-2.361-6.749-5.903-6.749-3.541 0-5.902 3.01-5.902 6.749v2.243c0 3.718 2.36 6.748 5.902 6.748zm31.479 21.642V29.545c0-4.88-7.712-5.902-11.804-5.902-4.093 0-11.805 1.023-11.805 5.902V41.35" stroke="#00999A" stroke-width="4" stroke-miterlimit="10"/><path d="M85.065 35.447V33.48c0-4.88-7.713-5.903-11.805-5.903-1.633 0-3.837.157-5.903.67M26.04 41.35v-7.87c0-4.88 7.713-5.903 11.805-5.903 1.633 0 3.837.157 5.903.67" stroke="#00999A" stroke-width="4" stroke-miterlimit="10"/></svg>