<svg width="56" height="44" fill="none" xmlns="http://www.w3.org/2000/svg"><path d="M11.755 43.429c-3.483 0-6.313-1.198-8.49-3.592C1.088 37.333 0 34.122 0 30.204c0-6.64 2.014-12.626 6.04-17.96C10.069 6.804 16.273 2.722 24.654 0l1.96 4.735c-8.49 3.047-13.334 8.109-14.531 15.183 3.374.327 6.095 1.524 8.163 3.592 2.177 2.068 3.265 4.79 3.265 8.163 0 3.484-1.088 6.313-3.265 8.49-2.177 2.177-5.007 3.266-8.49 3.266zm29.388 0c-3.483 0-6.313-1.198-8.49-3.592-2.177-2.504-3.265-5.715-3.265-9.633 0-6.64 2.013-12.626 6.04-17.96C39.457 6.804 45.66 2.722 54.042 0L56 4.735c-8.49 3.047-13.333 8.109-14.53 15.183 3.373.327 6.095 1.524 8.163 3.592 2.176 2.068 3.265 4.79 3.265 8.163 0 3.484-1.089 6.313-3.265 8.49-2.177 2.177-5.007 3.266-8.49 3.266z" fill="#1B313B"/></svg>