<svg xmlns="http://www.w3.org/2000/svg" width="18" height="18"
                                            viewBox="0 0 18 18" fill="none">
                                            <path
                                                d="M12.7334 4.7332H13.8001M5.80011 1.5332H12.2001C14.5565 1.5332 16.4668 3.44346 16.4668 5.79987V12.1999C16.4668 14.5563 14.5565 16.4665 12.2001 16.4665H5.80011C3.4437 16.4665 1.53345 14.5563 1.53345 12.1999V5.79987C1.53345 3.44345 3.4437 1.5332 5.80011 1.5332ZM9.00011 12.1999C7.2328 12.1999 5.80011 10.7672 5.80011 8.99987C5.80011 7.23256 7.2328 5.79987 9.00011 5.79987C10.7674 5.79987 12.2001 7.23256 12.2001 8.99987C12.2001 10.7672 10.7674 12.1999 9.00011 12.1999Z"
                                                stroke="#ffffff" stroke-width="1.5" />
                                        </svg>